<svg xmlns="http://www.w3.org/2000/svg" width="16.626" height="21.521" viewBox="0 0 16.626 21.521">
  <g id="Group_200" data-name="Group 200" transform="translate(159.708 -97.583) rotate(90)" opacity="0.999">
    <path id="Path_5752" data-name="Path 5752" d="M108.348,159.708h-.014a3.138,3.138,0,0,1-2.977-2.952,6.969,6.969,0,0,1,2.1-5.607c.1-.109.2-.216.314-.32-.168-.12-.342-.233-.521-.339-.425,1.859-2.748,3.107-4.854,3.107a3.264,3.264,0,0,1-1.875-.5,1.98,1.98,0,0,1-.851-1.7,2.656,2.656,0,0,1,.212-1.07l-.163-.08a3.3,3.3,0,0,1-2.136-2.769,2.289,2.289,0,0,1,.9-1.93,3.462,3.462,0,0,1,2.065-.571c2.44,0,6.092,1.768,6.687,4.217a7.866,7.866,0,0,0,.623-.6,13.033,13.033,0,0,1-2.416-5.07.366.366,0,0,1,.717-.147,12.671,12.671,0,0,0,2.186,4.647,12.608,12.608,0,0,0,2.185-4.647.366.366,0,0,1,.718.147,13.041,13.041,0,0,1-2.416,5.07,7.871,7.871,0,0,0,.623.6c.6-2.449,4.247-4.217,6.687-4.217,1.856,0,2.964.935,2.964,2.5a3.3,3.3,0,0,1-2.136,2.769l-.163.081a2.65,2.65,0,0,1,.212,1.07,1.98,1.98,0,0,1-.851,1.7,3.264,3.264,0,0,1-1.875.5c-2.105,0-4.429-1.249-4.854-3.107-.179.106-.354.219-.521.339q.165.155.314.32a6.966,6.966,0,0,1,2.1,5.607,3.137,3.137,0,0,1-2.977,2.952Zm-.758-9.858a7.822,7.822,0,0,1,.754.5,7.754,7.754,0,0,1,.754-.5,8.645,8.645,0,0,1-.754-.705A8.645,8.645,0,0,1,107.59,149.85Z" transform="translate(0 0)" fill="#35aa77"/>
  </g>
</svg>
