<svg xmlns="http://www.w3.org/2000/svg" xmlns:xlink="http://www.w3.org/1999/xlink" width="106.396" height="110.813" viewBox="0 0 106.396 110.813">
  <defs>
    <clipPath id="clip-path">
      <path id="Path_492" data-name="Path 492" d="M63.445,93.434c-1.047-8.417,2.141-16.789,9.468-24.891.538-.6,1.109-1.168,1.7-1.717.594.549,1.165,1.122,1.7,1.717,7.328,8.1,10.515,16.477,9.469,24.891-.492,3.954-3.459,11.43-11.171,11.445-7.713-.014-10.682-7.491-11.174-11.445m1.831-30.081C62.63,70.325,52.5,74.611,45.212,74.611a12.592,12.592,0,0,1-7.2-1.84,6.253,6.253,0,0,1-2.66-5.445,9.564,9.564,0,0,1,.763-3.9,45.621,45.621,0,0,0,15.344,2.692,32.851,32.851,0,0,0,13.814-2.763m18.682,0c8.5,3.978,20.164,3.358,29.157.068a9.564,9.564,0,0,1,.764,3.9,6.25,6.25,0,0,1-2.66,5.445,12.587,12.587,0,0,1-7.2,1.84c-7.285,0-17.419-4.286-20.062-11.257M38.451,60.39a11.7,11.7,0,0,1,3.231-1.827c5.441-2.1,14.061-1.51,21.928,1.569a29.3,29.3,0,0,1-12.105,2.346A42.571,42.571,0,0,1,38.451,60.39m47.173-.258c7.872-3.081,16.486-3.667,21.927-1.569a11.651,11.651,0,0,1,3.233,1.828,42.633,42.633,0,0,1-13.057,2.087,29.294,29.294,0,0,1-12.1-2.346M70.891,59.67a42.771,42.771,0,0,0,3.726-3.492,42.565,42.565,0,0,0,3.726,3.492,38.425,38.425,0,0,0-3.726,2.469,38.872,38.872,0,0,0-3.726-2.469M33.629,58.4c-3.208-1.647-8.591-5.2-8.591-10.492,0-7.243,6-8.764,11.035-8.764,6.2,0,13.775,2.427,19.775,6.332,5.211,3.393,8.613,7.484,9.7,11.556-8.542-3.531-18.255-4.525-25.17-1.85a14.286,14.286,0,0,0-5.627,3.764c-.382-.174-.758-.358-1.125-.545m79.533-19.256c3.394,0,6.182.734,8.059,2.124a7.75,7.75,0,0,1,2.975,6.64c0,5.293-5.381,8.845-8.59,10.489-.366.189-.741.371-1.128.548a14.254,14.254,0,0,0-5.624-3.764,25.325,25.325,0,0,0-9.079-1.521,43.108,43.108,0,0,0-16.094,3.371c2.554-9.549,17.589-17.888,29.48-17.888M85.42,27.594a62.445,62.445,0,0,1-10.8,23.017A62.871,62.871,0,0,1,63.811,27.594a1.808,1.808,0,1,0-3.543.725A64.587,64.587,0,0,0,72.212,53.435a39.365,39.365,0,0,1-3.08,2.976c-2.943-12.133-21-20.893-33.059-20.893-4.176,0-7.706.979-10.209,2.831a11.346,11.346,0,0,0-4.444,9.559c0,5.353,3.751,10.225,10.561,13.719.265.134.532.267.8.4a13.182,13.182,0,0,0-1.047,5.3,9.818,9.818,0,0,0,4.206,8.417,16.126,16.126,0,0,0,9.269,2.495c10.41,0,21.895-6.185,23.994-15.394.887.525,1.749,1.083,2.577,1.68-.541.513-1.061,1.043-1.552,1.585-8.068,8.92-11.559,18.264-10.378,27.774.874,7.025,5.852,14.585,14.718,14.624H74.6a.213.213,0,0,1,.043,0h.023c8.87-.039,13.844-7.6,14.717-14.624C90.562,84.374,87.071,75.029,79,66.107c-.49-.542-1.009-1.071-1.552-1.585.828-.6,1.69-1.155,2.577-1.68,2.1,9.208,13.585,15.394,23.994,15.394a16.126,16.126,0,0,0,9.269-2.495,9.816,9.816,0,0,0,4.208-8.417,13.182,13.182,0,0,0-1.048-5.3q.407-.2.806-.4c6.812-3.492,10.561-8.365,10.561-13.717,0-7.758-5.478-12.389-14.653-12.389-12.063,0-30.118,8.76-33.063,20.893a39.09,39.09,0,0,1-3.077-2.979c9-11.09,11.8-24.411,11.947-25.113a1.813,1.813,0,0,0-1.413-2.137,1.78,1.78,0,0,0-.358-.036,1.822,1.822,0,0,0-1.778,1.448" transform="translate(-21.42 -26.146)" fill="none"/>
    </clipPath>
  </defs>
  <g id="Group_23" data-name="Group 23" transform="translate(-30.887 -37.701)">
    <g id="Group_20" data-name="Group 20" transform="translate(30.887 37.701)">
      <g id="Group_19" data-name="Group 19" clip-path="url(#clip-path)">
        <path id="Path_17" data-name="Path 17" d="M34.459,35.16l-10.531.264V35.16Z" transform="translate(-20.311 -22.162)" fill="#d2df8b"/>
        <path id="Path_18" data-name="Path 18" d="M51.931,35.16l-28,.7v-.435L34.46,35.16Z" transform="translate(-20.311 -22.162)" fill="#d1de8a"/>
        <path id="Path_19" data-name="Path 19" d="M64.441,35.284,23.929,36.3V35.86l28-.7H64.441Z" transform="translate(-20.311 -22.162)" fill="#d0de89"/>
        <path id="Path_20" data-name="Path 20" d="M64.441,35.683,23.929,36.7v-.437l40.512-1.012Z" transform="translate(-20.311 -22.124)" fill="#cfdd88"/>
        <path id="Path_21" data-name="Path 21" d="M64.441,35.986,23.929,37v-.437l40.512-1.012Z" transform="translate(-20.311 -21.99)" fill="#cfdd87"/>
        <path id="Path_22" data-name="Path 22" d="M64.441,36.289,23.929,37.3v-.437l40.512-1.012Z" transform="translate(-20.311 -21.856)" fill="#cedc85"/>
        <path id="Path_23" data-name="Path 23" d="M64.441,36.592,23.929,37.6v-.437l40.512-1.012Z" transform="translate(-20.311 -21.722)" fill="#cddc84"/>
        <path id="Path_24" data-name="Path 24" d="M64.441,36.895,23.929,37.907V37.47l40.512-1.012Z" transform="translate(-20.311 -21.588)" fill="#ccdc83"/>
        <path id="Path_25" data-name="Path 25" d="M64.441,37.2,23.929,38.21v-.437l40.512-1.012Z" transform="translate(-20.311 -21.454)" fill="#cbdb82"/>
        <path id="Path_26" data-name="Path 26" d="M64.441,37.5,23.929,38.513v-.437l40.512-1.012Z" transform="translate(-20.311 -21.32)" fill="#cbdb81"/>
        <path id="Path_27" data-name="Path 27" d="M64.441,37.8,23.929,38.816v-.437l40.512-1.012Z" transform="translate(-20.311 -21.187)" fill="#cada80"/>
        <path id="Path_28" data-name="Path 28" d="M64.441,38.106,23.929,39.119v-.437L64.441,37.67Z" transform="translate(-20.311 -21.053)" fill="#c9da7f"/>
        <path id="Path_29" data-name="Path 29" d="M64.441,38.409,23.929,39.422v-.437l40.512-1.012Z" transform="translate(-20.311 -20.919)" fill="#c9da7e"/>
        <path id="Path_30" data-name="Path 30" d="M64.441,38.712,23.929,39.724v-.437l40.512-1.012Z" transform="translate(-20.311 -20.785)" fill="#c8d97d"/>
        <path id="Path_31" data-name="Path 31" d="M64.441,39.015,23.929,40.027V39.59l40.512-1.012Z" transform="translate(-20.311 -20.651)" fill="#c7d97c"/>
        <path id="Path_32" data-name="Path 32" d="M64.441,39.318,23.929,40.33v-.437l40.512-1.012Z" transform="translate(-20.311 -20.517)" fill="#c6d87b"/>
        <path id="Path_33" data-name="Path 33" d="M64.441,39.621,23.929,40.633V40.2l40.512-1.012Z" transform="translate(-20.311 -20.383)" fill="#c5d87a"/>
        <path id="Path_34" data-name="Path 34" d="M64.441,39.924,23.929,40.936V40.5l40.512-1.012Z" transform="translate(-20.311 -20.249)" fill="#c5d879"/>
        <path id="Path_35" data-name="Path 35" d="M64.441,40.227,23.929,41.239V40.8L64.441,39.79Z" transform="translate(-20.311 -20.116)" fill="#c4d778"/>
        <path id="Path_36" data-name="Path 36" d="M64.441,40.53,23.929,41.542V41.1l40.512-1.012Z" transform="translate(-20.311 -19.982)" fill="#c3d777"/>
        <path id="Path_37" data-name="Path 37" d="M64.441,40.833,23.929,41.845v-.437L64.441,40.4Z" transform="translate(-20.311 -19.848)" fill="#c2d676"/>
        <path id="Path_38" data-name="Path 38" d="M64.441,41.135,23.929,42.148v-.437L64.441,40.7Z" transform="translate(-20.311 -19.714)" fill="#c2d675"/>
        <path id="Path_39" data-name="Path 39" d="M64.441,41.438,23.929,42.451v-.437L64.441,41Z" transform="translate(-20.311 -19.58)" fill="#c1d674"/>
        <path id="Path_40" data-name="Path 40" d="M64.441,41.741,23.929,42.753v-.437L64.441,41.3Z" transform="translate(-20.311 -19.446)" fill="#c0d573"/>
        <path id="Path_41" data-name="Path 41" d="M64.441,42.044,23.929,43.056v-.437l40.512-1.012Z" transform="translate(-20.311 -19.312)" fill="#c0d572"/>
        <path id="Path_42" data-name="Path 42" d="M64.441,42.347,23.929,43.359v-.437L64.441,41.91Z" transform="translate(-20.311 -19.178)" fill="#bfd571"/>
        <path id="Path_43" data-name="Path 43" d="M64.441,42.65,23.929,43.662v-.437l40.512-1.012Z" transform="translate(-20.311 -19.045)" fill="#bed470"/>
        <path id="Path_44" data-name="Path 44" d="M64.441,42.953,23.929,43.965v-.437l40.512-1.012Z" transform="translate(-20.311 -18.911)" fill="#bdd46f"/>
        <path id="Path_45" data-name="Path 45" d="M64.441,43.256,23.929,44.268v-.437l40.512-1.012Z" transform="translate(-20.311 -18.777)" fill="#bdd36e"/>
        <path id="Path_46" data-name="Path 46" d="M64.441,43.559,23.929,44.571v-.437l40.512-1.012Z" transform="translate(-20.311 -18.643)" fill="#bcd36d"/>
        <path id="Path_47" data-name="Path 47" d="M64.441,43.862,23.929,44.874v-.437l40.512-1.012Z" transform="translate(-20.311 -18.509)" fill="#bbd36c"/>
        <path id="Path_48" data-name="Path 48" d="M64.441,44.165,23.929,45.177V44.74l40.512-1.012Z" transform="translate(-20.311 -18.375)" fill="#bbd26b"/>
        <path id="Path_49" data-name="Path 49" d="M64.441,44.467,23.929,45.48v-.437l40.512-1.012Z" transform="translate(-20.311 -18.241)" fill="#bad26a"/>
        <path id="Path_50" data-name="Path 50" d="M64.441,44.77,23.929,45.783v-.437l40.512-1.012Z" transform="translate(-20.311 -18.107)" fill="#b9d269"/>
        <path id="Path_51" data-name="Path 51" d="M64.441,45.073,23.929,46.085v-.437l40.512-1.012Z" transform="translate(-20.311 -17.974)" fill="#b8d168"/>
        <path id="Path_52" data-name="Path 52" d="M64.441,45.376,23.929,46.388v-.437l40.512-1.012Z" transform="translate(-20.311 -17.84)" fill="#b8d167"/>
        <path id="Path_53" data-name="Path 53" d="M64.441,45.679,23.929,46.691v-.437l40.512-1.012Z" transform="translate(-20.311 -17.706)" fill="#b7d166"/>
        <path id="Path_54" data-name="Path 54" d="M64.441,45.982,23.929,46.994v-.437l40.512-1.012Z" transform="translate(-20.311 -17.572)" fill="#b7d065"/>
        <path id="Path_55" data-name="Path 55" d="M64.441,46.285,23.929,47.3V46.86l40.512-1.012Z" transform="translate(-20.311 -17.438)" fill="#b6d064"/>
        <path id="Path_56" data-name="Path 56" d="M64.441,46.588,23.929,47.6v-.437l40.512-1.012Z" transform="translate(-20.311 -17.304)" fill="#b5d063"/>
        <path id="Path_57" data-name="Path 57" d="M64.441,46.891,23.929,47.9v-.437l40.512-1.012Z" transform="translate(-20.311 -17.17)" fill="#b5cf62"/>
        <path id="Path_58" data-name="Path 58" d="M64.441,47.194,23.929,48.206v-.437l40.512-1.012Z" transform="translate(-20.311 -17.037)" fill="#b4cf61"/>
        <path id="Path_59" data-name="Path 59" d="M64.441,47.5,23.929,48.509v-.437L64.441,47.06Z" transform="translate(-20.311 -16.903)" fill="#b3cf61"/>
        <path id="Path_60" data-name="Path 60" d="M64.441,47.8,23.929,48.812v-.437l40.512-1.012Z" transform="translate(-20.311 -16.769)" fill="#b3ce60"/>
        <path id="Path_61" data-name="Path 61" d="M64.441,48.1,23.929,49.114v-.437l40.512-1.012Z" transform="translate(-20.311 -16.635)" fill="#b2ce5f"/>
        <path id="Path_62" data-name="Path 62" d="M64.441,48.405l-35.817.9h-4.7v-.32l40.512-1.012Z" transform="translate(-20.311 -16.501)" fill="#b2ce5e"/>
        <path id="Path_63" data-name="Path 63" d="M63,48.708l-18.346.459H27.185L63,48.271Z" transform="translate(-18.872 -16.367)" fill="#b1cd5d"/>
        <path id="Path_64" data-name="Path 64" d="M57.647,49.011l-.874.022H39.3l18.346-.459Z" transform="translate(-13.517 -16.233)" fill="#b0cd5c"/>
        <path id="Path_65" data-name="Path 65" d="M51.418,48.9l.874-.022V48.9Z" transform="translate(-8.162 -16.099)" fill="#b0cd5b"/>
        <path id="Path_66" data-name="Path 66" d="M68.9,35.16l-4.3.108V35.16Z" transform="translate(-2.336 -22.162)" fill="#cfdd88"/>
        <path id="Path_67" data-name="Path 67" d="M86.369,35.16,64.6,35.7v-.435l4.3-.108Z" transform="translate(-2.336 -22.162)" fill="#cfdd87"/>
        <path id="Path_68" data-name="Path 68" d="M103.84,35.16,64.6,36.141V35.7L86.37,35.16Z" transform="translate(-2.336 -22.162)" fill="#cedc85"/>
        <path id="Path_69" data-name="Path 69" d="M105.113,35.565,64.6,36.578v-.437l39.242-.981h1.272Z" transform="translate(-2.336 -22.162)" fill="#cddc84"/>
        <path id="Path_70" data-name="Path 70" d="M105.113,35.878,64.6,36.89v-.437l40.514-1.012Z" transform="translate(-2.336 -22.038)" fill="#ccdc83"/>
        <path id="Path_71" data-name="Path 71" d="M105.113,36.181,64.6,37.193v-.435l40.514-1.014Z" transform="translate(-2.336 -21.904)" fill="#cbdb82"/>
        <path id="Path_72" data-name="Path 72" d="M105.113,36.484,64.6,37.5v-.437l40.514-1.012Z" transform="translate(-2.336 -21.77)" fill="#cbdb81"/>
        <path id="Path_73" data-name="Path 73" d="M105.113,36.787,64.6,37.8v-.437l40.514-1.012Z" transform="translate(-2.336 -21.636)" fill="#cada80"/>
        <path id="Path_74" data-name="Path 74" d="M105.113,37.09,64.6,38.1v-.437l40.514-1.012Z" transform="translate(-2.336 -21.502)" fill="#c9da7f"/>
        <path id="Path_75" data-name="Path 75" d="M105.113,37.393,64.6,38.4v-.437l40.514-1.012Z" transform="translate(-2.336 -21.368)" fill="#c9da7e"/>
        <path id="Path_76" data-name="Path 76" d="M105.113,37.7,64.6,38.708v-.437l40.514-1.012Z" transform="translate(-2.336 -21.234)" fill="#c8d97d"/>
        <path id="Path_77" data-name="Path 77" d="M105.113,38,64.6,39.011v-.435l40.514-1.014Z" transform="translate(-2.336 -21.1)" fill="#c7d97c"/>
        <path id="Path_78" data-name="Path 78" d="M105.113,38.3,64.6,39.313v-.437l40.514-1.012Z" transform="translate(-2.336 -20.967)" fill="#c6d87b"/>
        <path id="Path_79" data-name="Path 79" d="M105.113,38.6,64.6,39.616v-.437l40.514-1.012Z" transform="translate(-2.336 -20.833)" fill="#c5d87a"/>
        <path id="Path_80" data-name="Path 80" d="M105.113,38.907,64.6,39.919v-.437l40.514-1.012Z" transform="translate(-2.336 -20.699)" fill="#c5d879"/>
        <path id="Path_81" data-name="Path 81" d="M105.113,39.21,64.6,40.222v-.437l40.514-1.012Z" transform="translate(-2.336 -20.565)" fill="#c4d778"/>
        <path id="Path_82" data-name="Path 82" d="M105.113,39.513,64.6,40.525V40.09l40.514-1.014Z" transform="translate(-2.336 -20.431)" fill="#c3d777"/>
        <path id="Path_83" data-name="Path 83" d="M105.113,39.816,64.6,40.828v-.437l40.514-1.012Z" transform="translate(-2.336 -20.297)" fill="#c2d676"/>
        <path id="Path_84" data-name="Path 84" d="M105.113,40.119,64.6,41.131v-.437l40.514-1.012Z" transform="translate(-2.336 -20.163)" fill="#c2d675"/>
        <path id="Path_85" data-name="Path 85" d="M105.113,40.422,64.6,41.434V41l40.514-1.012Z" transform="translate(-2.336 -20.03)" fill="#c1d674"/>
        <path id="Path_86" data-name="Path 86" d="M105.113,40.724,64.6,41.737V41.3l40.514-1.012Z" transform="translate(-2.336 -19.896)" fill="#c0d573"/>
        <path id="Path_87" data-name="Path 87" d="M105.113,41.027,64.6,42.04V41.6l40.514-1.012Z" transform="translate(-2.336 -19.762)" fill="#c0d572"/>
        <path id="Path_88" data-name="Path 88" d="M105.113,41.33,64.6,42.342v-.435l40.514-1.014Z" transform="translate(-2.336 -19.628)" fill="#bfd571"/>
        <path id="Path_89" data-name="Path 89" d="M105.113,41.633,64.6,42.645v-.437L105.113,41.2Z" transform="translate(-2.336 -19.494)" fill="#bed470"/>
        <path id="Path_90" data-name="Path 90" d="M105.113,41.936,64.6,42.948v-.437L105.113,41.5Z" transform="translate(-2.336 -19.36)" fill="#bdd46f"/>
        <path id="Path_91" data-name="Path 91" d="M105.113,42.239,64.6,43.251v-.437L105.113,41.8Z" transform="translate(-2.336 -19.226)" fill="#bdd36e"/>
        <path id="Path_92" data-name="Path 92" d="M105.113,42.542,64.6,43.554v-.437l40.514-1.012Z" transform="translate(-2.336 -19.092)" fill="#bcd36d"/>
        <path id="Path_93" data-name="Path 93" d="M105.113,42.845,64.6,43.857V43.42l40.514-1.012Z" transform="translate(-2.336 -18.958)" fill="#bbd36c"/>
        <path id="Path_94" data-name="Path 94" d="M105.113,43.148,64.6,44.16v-.435l40.514-1.014Z" transform="translate(-2.336 -18.825)" fill="#bbd26b"/>
        <path id="Path_95" data-name="Path 95" d="M105.113,43.451,64.6,44.463v-.437l40.514-1.012Z" transform="translate(-2.336 -18.691)" fill="#bad26a"/>
        <path id="Path_96" data-name="Path 96" d="M105.113,43.754,64.6,44.766v-.437l40.514-1.012Z" transform="translate(-2.336 -18.557)" fill="#b9d269"/>
        <path id="Path_97" data-name="Path 97" d="M105.113,44.056,64.6,45.069v-.437l40.514-1.012Z" transform="translate(-2.336 -18.423)" fill="#b8d168"/>
        <path id="Path_98" data-name="Path 98" d="M105.113,44.359,64.6,45.372v-.437l40.514-1.012Z" transform="translate(-2.336 -18.289)" fill="#b8d167"/>
        <path id="Path_99" data-name="Path 99" d="M105.113,44.662,64.6,45.674v-.437l40.514-1.012Z" transform="translate(-2.336 -18.155)" fill="#b7d166"/>
        <path id="Path_100" data-name="Path 100" d="M105.113,44.965,64.6,45.977v-.435l40.514-1.014Z" transform="translate(-2.336 -18.021)" fill="#b7d065"/>
        <path id="Path_101" data-name="Path 101" d="M105.113,45.268,64.6,46.28v-.437l40.514-1.012Z" transform="translate(-2.336 -17.888)" fill="#b6d064"/>
        <path id="Path_102" data-name="Path 102" d="M105.113,45.571,64.6,46.583v-.437l40.514-1.012Z" transform="translate(-2.336 -17.754)" fill="#b5d063"/>
        <path id="Path_103" data-name="Path 103" d="M105.113,45.874,64.6,46.886v-.437l40.514-1.012Z" transform="translate(-2.336 -17.62)" fill="#b5cf62"/>
        <path id="Path_104" data-name="Path 104" d="M105.113,46.177,64.6,47.189v-.437l40.514-1.012Z" transform="translate(-2.336 -17.486)" fill="#b4cf61"/>
        <path id="Path_105" data-name="Path 105" d="M105.113,46.48,64.6,47.492v-.437l40.514-1.012Z" transform="translate(-2.336 -17.352)" fill="#b3cf61"/>
        <path id="Path_106" data-name="Path 106" d="M105.113,46.783,64.6,47.795v-.435l40.514-1.014Z" transform="translate(-2.336 -17.218)" fill="#b3ce60"/>
        <path id="Path_107" data-name="Path 107" d="M105.113,47.086,64.6,48.1v-.437l40.514-1.012Z" transform="translate(-2.336 -17.084)" fill="#b2ce5f"/>
        <path id="Path_108" data-name="Path 108" d="M105.113,47.388,64.6,48.4v-.437l40.514-1.012Z" transform="translate(-2.336 -16.95)" fill="#b2ce5e"/>
        <path id="Path_109" data-name="Path 109" d="M105.113,47.691,64.6,48.7v-.437l40.514-1.012Z" transform="translate(-2.336 -16.816)" fill="#b1cd5d"/>
        <path id="Path_110" data-name="Path 110" d="M105.113,47.994,64.6,49.006V48.57l40.514-1.012Z" transform="translate(-2.336 -16.683)" fill="#b0cd5c"/>
        <path id="Path_111" data-name="Path 111" d="M105.113,48.3,64.6,49.309v-.437l40.514-1.012Z" transform="translate(-2.336 -16.549)" fill="#b0cd5b"/>
        <path id="Path_112" data-name="Path 112" d="M105.113,48.6l-24.578.614H64.6v-.037l40.514-1.014Z" transform="translate(-2.336 -16.415)" fill="#afcc5a"/>
        <path id="Path_113" data-name="Path 113" d="M100.228,48.9l-7.107.177H75.65l24.578-.614Z" transform="translate(2.548 -16.281)" fill="#afcc59"/>
        <path id="Path_114" data-name="Path 114" d="M87.766,48.947l7.107-.177v.177Z" transform="translate(7.903 -16.147)" fill="#aecc58"/>
        <path id="Path_115" data-name="Path 115" d="M63.18,47.215l-7.452.186v-.427H63.18Z" transform="translate(-6.257 -16.941)" fill="#b3cf61"/>
        <path id="Path_116" data-name="Path 116" d="M63.18,47.578l-7.452.186v-.437l7.452-.186Z" transform="translate(-6.257 -16.867)" fill="#b3ce60"/>
        <path id="Path_117" data-name="Path 117" d="M63.18,47.88l-7.452.186V47.63l7.452-.186Z" transform="translate(-6.257 -16.733)" fill="#b2ce5f"/>
        <path id="Path_118" data-name="Path 118" d="M63.18,48.183l-7.452.186v-.437l7.452-.186Z" transform="translate(-6.257 -16.599)" fill="#b2ce5e"/>
        <path id="Path_119" data-name="Path 119" d="M63.18,48.486l-7.452.186v-.437l7.452-.186Z" transform="translate(-6.257 -16.465)" fill="#b1cd5d"/>
        <path id="Path_120" data-name="Path 120" d="M63.18,48.789l-7.452.186v-.437l7.452-.186Z" transform="translate(-6.257 -16.331)" fill="#b0cd5c"/>
        <path id="Path_121" data-name="Path 121" d="M63.18,49.092l-7.452.186v-.437l7.452-.186Z" transform="translate(-6.257 -16.197)" fill="#b0cd5b"/>
        <path id="Path_122" data-name="Path 122" d="M63.18,49.4l-7.452.186v-.437l7.452-.186Z" transform="translate(-6.257 -16.064)" fill="#afcc5a"/>
        <path id="Path_123" data-name="Path 123" d="M63.18,49.7l-7.452.186v-.437l7.452-.186Z" transform="translate(-6.257 -15.93)" fill="#afcc59"/>
        <path id="Path_124" data-name="Path 124" d="M63.18,50l-7.452.186V49.75l7.452-.186Z" transform="translate(-6.257 -15.796)" fill="#aecc58"/>
        <path id="Path_125" data-name="Path 125" d="M63.18,50.3l-7.452.186v-.437l7.452-.186Z" transform="translate(-6.257 -15.662)" fill="#adcb57"/>
        <path id="Path_126" data-name="Path 126" d="M63.18,50.607l-7.452.186v-.437l7.452-.186Z" transform="translate(-6.257 -15.528)" fill="#adcb56"/>
        <path id="Path_127" data-name="Path 127" d="M63.18,50.91l-7.452.186v-.437l7.452-.186Z" transform="translate(-6.257 -15.394)" fill="#accb55"/>
        <path id="Path_128" data-name="Path 128" d="M63.18,51.212l-1.632.04h-5.82v-.291l7.452-.186Z" transform="translate(-6.257 -15.26)" fill="#abcb55"/>
        <path id="Path_129" data-name="Path 129" d="M59.764,51.119l1.632-.04v.04Z" transform="translate(-4.473 -15.126)" fill="#abca54"/>
        <path id="Path_130" data-name="Path 130" d="M36.357,47.172l-3.126.078v-.078Z" transform="translate(-16.2 -16.853)" fill="#b5cf62"/>
        <path id="Path_131" data-name="Path 131" d="M53.828,47.172l-20.6.515V47.25l3.126-.078Z" transform="translate(-16.2 -16.853)" fill="#b4cf61"/>
        <path id="Path_132" data-name="Path 132" d="M58.39,47.5l-25.159.629v-.437l20.6-.515H58.39Z" transform="translate(-16.2 -16.853)" fill="#b3cf61"/>
        <path id="Path_133" data-name="Path 133" d="M58.39,47.833l-25.159.629v-.437L58.39,47.4Z" transform="translate(-16.2 -16.754)" fill="#b3ce60"/>
        <path id="Path_134" data-name="Path 134" d="M58.39,48.136l-25.159.629v-.437L58.39,47.7Z" transform="translate(-16.2 -16.62)" fill="#b2ce5f"/>
        <path id="Path_135" data-name="Path 135" d="M58.39,48.439l-25.159.629v-.437L58.39,48Z" transform="translate(-16.2 -16.486)" fill="#b2ce5e"/>
        <path id="Path_136" data-name="Path 136" d="M58.39,48.742l-25.159.629v-.437L58.39,48.3Z" transform="translate(-16.2 -16.352)" fill="#b1cd5d"/>
        <path id="Path_137" data-name="Path 137" d="M58.39,49.045l-25.159.629v-.437l25.159-.629Z" transform="translate(-16.2 -16.218)" fill="#b0cd5c"/>
        <path id="Path_138" data-name="Path 138" d="M58.39,49.348l-25.159.629v-.437l25.159-.629Z" transform="translate(-16.2 -16.085)" fill="#b0cd5b"/>
        <path id="Path_139" data-name="Path 139" d="M58.39,49.65l-25.159.629v-.437l25.159-.629Z" transform="translate(-16.2 -15.951)" fill="#afcc5a"/>
        <path id="Path_140" data-name="Path 140" d="M58.39,49.953l-25.159.629v-.437l25.159-.629Z" transform="translate(-16.2 -15.817)" fill="#afcc59"/>
        <path id="Path_141" data-name="Path 141" d="M58.39,50.256l-25.159.629v-.437l25.159-.629Z" transform="translate(-16.2 -15.683)" fill="#aecc58"/>
        <path id="Path_142" data-name="Path 142" d="M58.39,50.559l-25.159.629v-.437l25.159-.629Z" transform="translate(-16.2 -15.549)" fill="#adcb57"/>
        <path id="Path_143" data-name="Path 143" d="M58.39,50.862l-25.159.629v-.437l25.159-.629Z" transform="translate(-16.2 -15.415)" fill="#adcb56"/>
        <path id="Path_144" data-name="Path 144" d="M58.39,51.165l-25.159.629v-.437l25.159-.629Z" transform="translate(-16.2 -15.281)" fill="#accb55"/>
        <path id="Path_145" data-name="Path 145" d="M58.39,51.468,33.231,52.1V51.66l25.159-.629Z" transform="translate(-16.2 -15.147)" fill="#abcb55"/>
        <path id="Path_146" data-name="Path 146" d="M58.39,51.771l-21.33.534h-3.83v-.342l25.159-.629Z" transform="translate(-16.2 -15.014)" fill="#abca54"/>
        <path id="Path_147" data-name="Path 147" d="M57.216,52.074l-3.859.1H35.887l21.33-.534Z" transform="translate(-15.026 -14.88)" fill="#aaca53"/>
        <path id="Path_148" data-name="Path 148" d="M48,52.036l3.859-.1v.1Z" transform="translate(-9.671 -14.746)" fill="#aaca52"/>
        <path id="Path_149" data-name="Path 149" d="M74.382,47.171l-8.438.211v-.211Z" transform="translate(-1.742 -16.853)" fill="#b3ce60"/>
        <path id="Path_150" data-name="Path 150" d="M91.105,47.19l-25.161.629v-.437l8.438-.211H91.105Z" transform="translate(-1.742 -16.853)" fill="#b2ce5f"/>
        <path id="Path_151" data-name="Path 151" d="M91.105,47.621l-25.161.629v-.437l25.161-.629Z" transform="translate(-1.742 -16.848)" fill="#b2ce5e"/>
        <path id="Path_152" data-name="Path 152" d="M91.105,47.924l-25.161.629v-.437l25.161-.629Z" transform="translate(-1.742 -16.714)" fill="#b1cd5d"/>
        <path id="Path_153" data-name="Path 153" d="M91.105,48.227l-25.161.629v-.437l25.161-.629Z" transform="translate(-1.742 -16.58)" fill="#b0cd5c"/>
        <path id="Path_154" data-name="Path 154" d="M91.105,48.53l-25.161.629v-.437l25.161-.629Z" transform="translate(-1.742 -16.446)" fill="#b0cd5b"/>
        <path id="Path_155" data-name="Path 155" d="M91.105,48.833l-25.161.629v-.437L91.105,48.4Z" transform="translate(-1.742 -16.312)" fill="#afcc5a"/>
        <path id="Path_156" data-name="Path 156" d="M91.105,49.135l-25.161.629v-.437L91.105,48.7Z" transform="translate(-1.742 -16.178)" fill="#afcc59"/>
        <path id="Path_157" data-name="Path 157" d="M91.105,49.438l-25.161.629V49.63L91.105,49Z" transform="translate(-1.742 -16.044)" fill="#aecc58"/>
        <path id="Path_158" data-name="Path 158" d="M91.105,49.741l-25.161.629v-.437L91.105,49.3Z" transform="translate(-1.742 -15.911)" fill="#adcb57"/>
        <path id="Path_159" data-name="Path 159" d="M91.105,50.044l-25.161.629v-.437l25.161-.629Z" transform="translate(-1.742 -15.777)" fill="#adcb56"/>
        <path id="Path_160" data-name="Path 160" d="M91.105,50.347l-25.161.629v-.437l25.161-.629Z" transform="translate(-1.742 -15.643)" fill="#accb55"/>
        <path id="Path_161" data-name="Path 161" d="M91.105,50.65l-25.161.629v-.437l25.161-.629Z" transform="translate(-1.742 -15.509)" fill="#abcb55"/>
        <path id="Path_162" data-name="Path 162" d="M91.105,50.953l-25.161.629v-.437l25.161-.629Z" transform="translate(-1.742 -15.375)" fill="#abca54"/>
        <path id="Path_163" data-name="Path 163" d="M91.105,51.256l-25.161.629v-.437l25.161-.629Z" transform="translate(-1.742 -15.241)" fill="#aaca53"/>
        <path id="Path_164" data-name="Path 164" d="M91.105,51.559l-25.161.629v-.437l25.161-.629Z" transform="translate(-1.742 -15.107)" fill="#aaca52"/>
        <path id="Path_165" data-name="Path 165" d="M91.105,51.862l-16.019.4H65.944v-.209l25.161-.629Z" transform="translate(-1.742 -14.973)" fill="#a9c951"/>
        <path id="Path_166" data-name="Path 166" d="M72.285,52.128l16.019-.4v.4Z" transform="translate(1.06 -14.84)" fill="#a9c950"/>
        <path id="Path_167" data-name="Path 167" d="M41.337,51.949l-10.252.257v-.257Z" transform="translate(-17.148 -14.742)" fill="#abca54"/>
        <path id="Path_168" data-name="Path 168" d="M58.809,51.949l-27.725.694v-.437l10.254-.257Z" transform="translate(-17.149 -14.742)" fill="#aaca53"/>
        <path id="Path_169" data-name="Path 169" d="M61,52.331l-29.921.748v-.437l27.725-.694H61Z" transform="translate(-17.149 -14.742)" fill="#aaca52"/>
        <path id="Path_170" data-name="Path 170" d="M61,52.651,31.084,53.4v-.437L61,52.214Z" transform="translate(-17.149 -14.625)" fill="#a9c951"/>
        <path id="Path_171" data-name="Path 171" d="M61,52.953,31.084,53.7v-.437L61,52.517Z" transform="translate(-17.149 -14.491)" fill="#a9c950"/>
        <path id="Path_172" data-name="Path 172" d="M61,53.256,31.084,54v-.437L61,52.819Z" transform="translate(-17.149 -14.357)" fill="#a8c94f"/>
        <path id="Path_173" data-name="Path 173" d="M61,53.559l-29.921.748v-.437L61,53.122Z" transform="translate(-17.149 -14.223)" fill="#a8c94e"/>
        <path id="Path_174" data-name="Path 174" d="M61,53.862l-29.921.748v-.437L61,53.425Z" transform="translate(-17.149 -14.089)" fill="#a7c84e"/>
        <path id="Path_175" data-name="Path 175" d="M61,54.165l-29.921.748v-.437L61,53.728Z" transform="translate(-17.149 -13.955)" fill="#a7c84d"/>
        <path id="Path_176" data-name="Path 176" d="M61,54.468l-29.921.748v-.437L61,54.031Z" transform="translate(-17.149 -13.821)" fill="#a6c84c"/>
        <path id="Path_177" data-name="Path 177" d="M61,54.771l-29.921.748v-.437L61,54.334Z" transform="translate(-17.149 -13.688)" fill="#a6c84b"/>
        <path id="Path_178" data-name="Path 178" d="M61,55.074l-29.921.748v-.437L61,54.637Z" transform="translate(-17.149 -13.554)" fill="#a5c74a"/>
        <path id="Path_179" data-name="Path 179" d="M61,55.377l-29.921.748v-.437L61,54.94Z" transform="translate(-17.149 -13.42)" fill="#a5c749"/>
        <path id="Path_180" data-name="Path 180" d="M61,55.68l-29.921.748v-.437L61,55.243Z" transform="translate(-17.149 -13.286)" fill="#a4c749"/>
        <path id="Path_181" data-name="Path 181" d="M61,55.983l-29.921.748v-.437L61,55.546Z" transform="translate(-17.149 -13.152)" fill="#a3c748"/>
        <path id="Path_182" data-name="Path 182" d="M61,56.285l-29.921.748V56.6L61,55.849Z" transform="translate(-17.149 -13.018)" fill="#a3c647"/>
        <path id="Path_183" data-name="Path 183" d="M61,56.588l-29.921.748V56.9L61,56.151Z" transform="translate(-17.149 -12.884)" fill="#a3c646"/>
        <path id="Path_184" data-name="Path 184" d="M61,56.891l-29.921.748V57.2L61,56.454Z" transform="translate(-17.149 -12.75)" fill="#a2c646"/>
        <path id="Path_185" data-name="Path 185" d="M61,57.194l-29.921.748v-.437L61,56.757Z" transform="translate(-17.149 -12.617)" fill="#a2c645"/>
        <path id="Path_186" data-name="Path 186" d="M61,57.5l-29.921.748v-.437L61,57.06Z" transform="translate(-17.149 -12.483)" fill="#a1c544"/>
        <path id="Path_187" data-name="Path 187" d="M61,57.8l-29.921.748v-.437L61,57.363Z" transform="translate(-17.149 -12.349)" fill="#a1c543"/>
        <path id="Path_188" data-name="Path 188" d="M61,58.1l-29.921.748v-.437L61,57.666Z" transform="translate(-17.149 -12.215)" fill="#a0c543"/>
        <path id="Path_189" data-name="Path 189" d="M61,58.406l-29.921.748v-.437L61,57.969Z" transform="translate(-17.149 -12.081)" fill="#a0c542"/>
        <path id="Path_190" data-name="Path 190" d="M61,58.709l-29.921.748V59.02L61,58.272Z" transform="translate(-17.149 -11.947)" fill="#9fc441"/>
        <path id="Path_191" data-name="Path 191" d="M61,59.012l-29.921.748v-.437L61,58.575Z" transform="translate(-17.149 -11.813)" fill="#9fc441"/>
        <path id="Path_192" data-name="Path 192" d="M61,59.315l-29.921.748v-.437L61,58.878Z" transform="translate(-17.149 -11.679)" fill="#9ec440"/>
        <path id="Path_193" data-name="Path 193" d="M61,59.617l-15.743.394H31.084v-.082L61,59.181Z" transform="translate(-17.149 -11.546)" fill="#9ec43f"/>
        <path id="Path_194" data-name="Path 194" d="M40.916,59.877l15.743-.394v.394Z" transform="translate(-12.804 -11.412)" fill="#9dc43f"/>
        <path id="Path_195" data-name="Path 195" d="M78.854,51.949,64.79,52.3v-.352Z" transform="translate(-2.252 -14.742)" fill="#a9c951"/>
        <path id="Path_196" data-name="Path 196" d="M94.711,51.989l-29.921.748V52.3l14.064-.352H94.711Z" transform="translate(-2.252 -14.742)" fill="#a9c950"/>
        <path id="Path_197" data-name="Path 197" d="M94.711,52.414l-29.921.748v-.437l29.921-.748Z" transform="translate(-2.252 -14.729)" fill="#a8c94f"/>
        <path id="Path_198" data-name="Path 198" d="M94.711,52.717l-29.921.748v-.437l29.921-.748Z" transform="translate(-2.252 -14.595)" fill="#a8c94e"/>
        <path id="Path_199" data-name="Path 199" d="M94.711,53.02l-29.921.748v-.437l29.921-.748Z" transform="translate(-2.252 -14.462)" fill="#a7c84e"/>
        <path id="Path_200" data-name="Path 200" d="M94.711,53.322l-29.921.748v-.437l29.921-.748Z" transform="translate(-2.252 -14.328)" fill="#a7c84d"/>
        <path id="Path_201" data-name="Path 201" d="M94.711,53.625l-29.921.748v-.437l29.921-.748Z" transform="translate(-2.252 -14.194)" fill="#a6c84c"/>
        <path id="Path_202" data-name="Path 202" d="M94.711,53.928l-29.921.748V54.24l29.921-.748Z" transform="translate(-2.252 -14.06)" fill="#a6c84b"/>
        <path id="Path_203" data-name="Path 203" d="M94.711,54.231l-29.921.748v-.437l29.921-.748Z" transform="translate(-2.252 -13.926)" fill="#a5c74a"/>
        <path id="Path_204" data-name="Path 204" d="M94.711,54.534l-29.921.748v-.437L94.711,54.1Z" transform="translate(-2.252 -13.792)" fill="#a5c749"/>
        <path id="Path_205" data-name="Path 205" d="M94.711,54.837l-29.921.748v-.437L94.711,54.4Z" transform="translate(-2.252 -13.658)" fill="#a4c749"/>
        <path id="Path_206" data-name="Path 206" d="M94.711,55.14l-29.921.748v-.437L94.711,54.7Z" transform="translate(-2.252 -13.525)" fill="#a3c748"/>
        <path id="Path_207" data-name="Path 207" d="M94.711,55.443l-29.921.748v-.437l29.921-.748Z" transform="translate(-2.252 -13.391)" fill="#a3c647"/>
        <path id="Path_208" data-name="Path 208" d="M94.711,55.746l-29.921.748v-.437l29.921-.748Z" transform="translate(-2.252 -13.257)" fill="#a3c646"/>
        <path id="Path_209" data-name="Path 209" d="M94.711,56.049,64.79,56.8V56.36l29.921-.748Z" transform="translate(-2.252 -13.123)" fill="#a2c646"/>
        <path id="Path_210" data-name="Path 210" d="M94.711,56.352,64.79,57.1v-.437l29.921-.748Z" transform="translate(-2.252 -12.989)" fill="#a2c645"/>
        <path id="Path_211" data-name="Path 211" d="M94.711,56.654,64.79,57.4v-.437l29.921-.748Z" transform="translate(-2.252 -12.855)" fill="#a1c544"/>
        <path id="Path_212" data-name="Path 212" d="M94.711,56.957l-29.921.748v-.437l29.921-.748Z" transform="translate(-2.252 -12.721)" fill="#a1c543"/>
        <path id="Path_213" data-name="Path 213" d="M94.711,57.26l-29.921.748v-.437l29.921-.748Z" transform="translate(-2.252 -12.587)" fill="#a0c543"/>
        <path id="Path_214" data-name="Path 214" d="M94.711,57.563l-29.921.748v-.437l29.921-.748Z" transform="translate(-2.252 -12.453)" fill="#a0c542"/>
        <path id="Path_215" data-name="Path 215" d="M94.711,57.866l-29.921.748v-.437l29.921-.748Z" transform="translate(-2.252 -12.32)" fill="#9fc441"/>
        <path id="Path_216" data-name="Path 216" d="M94.711,58.169l-29.921.748V58.48l29.921-.748Z" transform="translate(-2.252 -12.186)" fill="#9fc441"/>
        <path id="Path_217" data-name="Path 217" d="M94.711,58.472,64.79,59.22v-.437l29.921-.748Z" transform="translate(-2.252 -12.052)" fill="#9ec440"/>
        <path id="Path_218" data-name="Path 218" d="M94.711,58.775l-29.921.748v-.437l29.921-.748Z" transform="translate(-2.252 -11.918)" fill="#9ec43f"/>
        <path id="Path_219" data-name="Path 219" d="M94.711,59.078l-29.921.748v-.437l29.921-.748Z" transform="translate(-2.252 -11.784)" fill="#9dc43f"/>
        <path id="Path_220" data-name="Path 220" d="M94.711,59.381l-29.4.735H64.79v-.424l29.921-.748Z" transform="translate(-2.252 -11.65)" fill="#9dc33e"/>
        <path id="Path_221" data-name="Path 221" d="M94.553,59.683l-11.934.3H65.148l29.4-.735Z" transform="translate(-2.094 -11.516)" fill="#9dc33e"/>
        <path id="Path_222" data-name="Path 222" d="M77.264,59.848l11.934-.3v.3Z" transform="translate(3.261 -11.383)" fill="#9cc33d"/>
        <path id="Path_223" data-name="Path 223" d="M51.368,54.357l-1.53.039v-.039Z" transform="translate(-8.86 -13.677)" fill="#a6c84c"/>
        <path id="Path_224" data-name="Path 224" d="M68.839,54.357l-19,.474V54.4l1.53-.039Z" transform="translate(-8.86 -13.677)" fill="#a6c84b"/>
        <path id="Path_225" data-name="Path 225" d="M74.275,54.658l-24.437.611v-.437l19-.476h5.436Z" transform="translate(-8.86 -13.677)" fill="#a5c74a"/>
        <path id="Path_226" data-name="Path 226" d="M74.275,55l-24.437.611v-.437l24.437-.611Z" transform="translate(-8.86 -13.585)" fill="#a5c749"/>
        <path id="Path_227" data-name="Path 227" d="M74.275,55.306l-24.437.611V55.48l24.437-.611Z" transform="translate(-8.86 -13.451)" fill="#a4c749"/>
        <path id="Path_228" data-name="Path 228" d="M74.275,55.609l-24.437.611v-.437l24.437-.611Z" transform="translate(-8.86 -13.317)" fill="#a3c748"/>
        <path id="Path_229" data-name="Path 229" d="M74.275,55.912l-24.437.611v-.437l24.437-.611Z" transform="translate(-8.86 -13.183)" fill="#a3c647"/>
        <path id="Path_230" data-name="Path 230" d="M74.275,56.215l-24.437.611v-.437l24.437-.611Z" transform="translate(-8.86 -13.05)" fill="#a3c646"/>
        <path id="Path_231" data-name="Path 231" d="M74.275,56.517l-24.437.611v-.437l24.437-.611Z" transform="translate(-8.86 -12.916)" fill="#a2c646"/>
        <path id="Path_232" data-name="Path 232" d="M74.275,56.82l-24.437.611v-.437l24.437-.611Z" transform="translate(-8.86 -12.782)" fill="#a2c645"/>
        <path id="Path_233" data-name="Path 233" d="M74.275,57.123l-24.437.611V57.3l24.437-.611Z" transform="translate(-8.86 -12.648)" fill="#a1c544"/>
        <path id="Path_234" data-name="Path 234" d="M74.275,57.426l-24.437.611V57.6l24.437-.611Z" transform="translate(-8.86 -12.514)" fill="#a1c543"/>
        <path id="Path_235" data-name="Path 235" d="M74.275,57.729l-24.437.611V57.9l24.437-.611Z" transform="translate(-8.86 -12.38)" fill="#a0c543"/>
        <path id="Path_236" data-name="Path 236" d="M74.275,58.032l-24.437.611v-.437L74.275,57.6Z" transform="translate(-8.86 -12.246)" fill="#a0c542"/>
        <path id="Path_237" data-name="Path 237" d="M74.275,58.335l-24.437.611v-.437L74.275,57.9Z" transform="translate(-8.86 -12.112)" fill="#9fc441"/>
        <path id="Path_238" data-name="Path 238" d="M74.275,58.638l-24.437.611v-.437L74.275,58.2Z" transform="translate(-8.86 -11.979)" fill="#9fc441"/>
        <path id="Path_239" data-name="Path 239" d="M74.275,58.941l-24.437.611v-.437L74.275,58.5Z" transform="translate(-8.86 -11.845)" fill="#9ec440"/>
        <path id="Path_240" data-name="Path 240" d="M74.275,59.244l-24.437.611v-.437l24.437-.611Z" transform="translate(-8.86 -11.711)" fill="#9ec43f"/>
        <path id="Path_241" data-name="Path 241" d="M74.275,59.547l-24.437.611v-.437l24.437-.611Z" transform="translate(-8.86 -11.577)" fill="#9dc43f"/>
        <path id="Path_242" data-name="Path 242" d="M74.275,59.849l-24.437.611v-.437l24.437-.611Z" transform="translate(-8.86 -11.443)" fill="#9dc33e"/>
        <path id="Path_243" data-name="Path 243" d="M74.275,60.152l-24.437.611v-.437l24.437-.611Z" transform="translate(-8.86 -11.309)" fill="#9dc33e"/>
        <path id="Path_244" data-name="Path 244" d="M74.275,60.455l-24.437.611V60.63l24.437-.611Z" transform="translate(-8.86 -11.175)" fill="#9cc33d"/>
        <path id="Path_245" data-name="Path 245" d="M74.275,60.758l-24.437.611v-.437l24.437-.611Z" transform="translate(-8.86 -11.041)" fill="#9cc33c"/>
        <path id="Path_246" data-name="Path 246" d="M74.275,61.061l-24.437.611v-.437l24.437-.611Z" transform="translate(-8.86 -10.908)" fill="#9bc33c"/>
        <path id="Path_247" data-name="Path 247" d="M74.275,61.364l-24.437.611v-.437l24.437-.611Z" transform="translate(-8.86 -10.774)" fill="#9bc23b"/>
        <path id="Path_248" data-name="Path 248" d="M74.275,61.667l-24.437.611v-.437l24.437-.611Z" transform="translate(-8.86 -10.64)" fill="#9ac23b"/>
        <path id="Path_249" data-name="Path 249" d="M74.275,61.97l-24.437.611v-.437l24.437-.611Z" transform="translate(-8.86 -10.506)" fill="#9ac23a"/>
        <path id="Path_250" data-name="Path 250" d="M74.275,62.273l-24.437.611v-.437l24.437-.611Z" transform="translate(-8.86 -10.372)" fill="#9ac23a"/>
        <path id="Path_251" data-name="Path 251" d="M74.275,62.576l-24.437.611V62.75l24.437-.611Z" transform="translate(-8.86 -10.238)" fill="#99c239"/>
        <path id="Path_252" data-name="Path 252" d="M74.275,62.878l-24.437.611v-.437l24.437-.611Z" transform="translate(-8.86 -10.104)" fill="#99c138"/>
        <path id="Path_253" data-name="Path 253" d="M74.275,63.181l-24.437.611v-.437l24.437-.611Z" transform="translate(-8.86 -9.97)" fill="#98c138"/>
        <path id="Path_254" data-name="Path 254" d="M74.275,63.484,49.838,64.1v-.437l24.437-.611Z" transform="translate(-8.86 -9.837)" fill="#98c137"/>
        <path id="Path_255" data-name="Path 255" d="M74.275,63.787,49.838,64.4v-.437l24.437-.611Z" transform="translate(-8.86 -9.703)" fill="#98c137"/>
        <path id="Path_256" data-name="Path 256" d="M74.275,64.09,49.838,64.7v-.437l24.437-.611Z" transform="translate(-8.86 -9.569)" fill="#97c136"/>
        <path id="Path_257" data-name="Path 257" d="M74.275,64.393,49.838,65v-.437l24.437-.611Z" transform="translate(-8.86 -9.435)" fill="#97c036"/>
        <path id="Path_258" data-name="Path 258" d="M74.275,64.7l-24.437.611V64.87l24.437-.611Z" transform="translate(-8.86 -9.301)" fill="#97c036"/>
        <path id="Path_259" data-name="Path 259" d="M74.275,65l-24.437.611v-.437l24.437-.611Z" transform="translate(-8.86 -9.167)" fill="#96c035"/>
        <path id="Path_260" data-name="Path 260" d="M74.275,65.3l-24.437.611v-.437l24.437-.611Z" transform="translate(-8.86 -9.033)" fill="#96c035"/>
        <path id="Path_261" data-name="Path 261" d="M74.275,65.6l-24.437.611v-.437l24.437-.611Z" transform="translate(-8.86 -8.899)" fill="#95c034"/>
        <path id="Path_262" data-name="Path 262" d="M74.275,65.908l-24.437.611v-.437l24.437-.611Z" transform="translate(-8.86 -8.766)" fill="#95c034"/>
        <path id="Path_263" data-name="Path 263" d="M74.275,66.21l-24.437.611v-.437l24.437-.611Z" transform="translate(-8.86 -8.632)" fill="#95c033"/>
        <path id="Path_264" data-name="Path 264" d="M74.275,66.513l-24.437.611v-.437l24.437-.611Z" transform="translate(-8.86 -8.498)" fill="#94bf33"/>
        <path id="Path_265" data-name="Path 265" d="M74.275,66.816l-24.437.611v-.437l24.437-.611Z" transform="translate(-8.86 -8.364)" fill="#94bf32"/>
        <path id="Path_266" data-name="Path 266" d="M74.275,67.119l-24.437.611v-.437l24.437-.611Z" transform="translate(-8.86 -8.23)" fill="#94bf32"/>
        <path id="Path_267" data-name="Path 267" d="M74.275,67.422l-24.437.611V67.6l24.437-.611Z" transform="translate(-8.86 -8.096)" fill="#93bf31"/>
        <path id="Path_268" data-name="Path 268" d="M74.275,67.725l-24.437.611V67.9l24.437-.611Z" transform="translate(-8.86 -7.962)" fill="#93bf31"/>
        <path id="Path_269" data-name="Path 269" d="M74.275,68.028l-24.437.611V68.2l24.437-.611Z" transform="translate(-8.86 -7.828)" fill="#93bf31"/>
        <path id="Path_270" data-name="Path 270" d="M74.275,68.331l-24.437.611v-.437l24.437-.611Z" transform="translate(-8.86 -7.695)" fill="#92bf30"/>
        <path id="Path_271" data-name="Path 271" d="M74.275,68.634l-24.437.611v-.437L74.275,68.2Z" transform="translate(-8.86 -7.561)" fill="#92be30"/>
        <path id="Path_272" data-name="Path 272" d="M74.275,68.937l-24.437.611v-.437L74.275,68.5Z" transform="translate(-8.86 -7.427)" fill="#92be2f"/>
        <path id="Path_273" data-name="Path 273" d="M74.275,69.239l-24.437.611v-.437L74.275,68.8Z" transform="translate(-8.86 -7.293)" fill="#92be2f"/>
        <path id="Path_274" data-name="Path 274" d="M74.275,69.542l-24.437.611v-.437l24.437-.611Z" transform="translate(-8.86 -7.159)" fill="#91be2f"/>
        <path id="Path_275" data-name="Path 275" d="M74.275,69.845l-24.437.611V70.02l24.437-.611Z" transform="translate(-8.86 -7.025)" fill="#91be2e"/>
        <path id="Path_276" data-name="Path 276" d="M74.275,70.148l-24.437.611v-.437l24.437-.611Z" transform="translate(-8.86 -6.891)" fill="#91be2e"/>
        <path id="Path_277" data-name="Path 277" d="M74.275,70.451l-24.437.611v-.437l24.437-.611Z" transform="translate(-8.86 -6.757)" fill="#90be2e"/>
        <path id="Path_278" data-name="Path 278" d="M74.275,70.754l-24.437.611v-.437l24.437-.611Z" transform="translate(-8.86 -6.624)" fill="#90be2e"/>
        <path id="Path_279" data-name="Path 279" d="M74.275,71.057l-24.437.611v-.437l24.437-.611Z" transform="translate(-8.86 -6.49)" fill="#90bd2d"/>
        <path id="Path_280" data-name="Path 280" d="M74.275,71.36l-24.437.611v-.437l24.437-.611Z" transform="translate(-8.86 -6.356)" fill="#8fbd2d"/>
        <path id="Path_281" data-name="Path 281" d="M74.275,71.663l-24.437.611v-.437l24.437-.611Z" transform="translate(-8.86 -6.222)" fill="#8fbd2d"/>
        <path id="Path_282" data-name="Path 282" d="M74.275,71.966l-24.437.611V72.14l24.437-.611Z" transform="translate(-8.86 -6.088)" fill="#8fbd2c"/>
        <path id="Path_283" data-name="Path 283" d="M74.275,72.269l-24.437.611v-.437l24.437-.611Z" transform="translate(-8.86 -5.954)" fill="#8ebd2c"/>
        <path id="Path_284" data-name="Path 284" d="M74.275,72.571l-24.437.611v-.437l24.437-.611Z" transform="translate(-8.86 -5.82)" fill="#8ebd2c"/>
        <path id="Path_285" data-name="Path 285" d="M74.275,72.874l-24.437.611v-.437l24.437-.611Z" transform="translate(-8.86 -5.686)" fill="#8ebd2c"/>
        <path id="Path_286" data-name="Path 286" d="M74.275,73.177l-24.437.611v-.437l24.437-.611Z" transform="translate(-8.86 -5.553)" fill="#8ebd2c"/>
        <path id="Path_287" data-name="Path 287" d="M74.275,73.48l-24.437.611v-.437l24.437-.611Z" transform="translate(-8.86 -5.419)" fill="#8ebd2b"/>
        <path id="Path_288" data-name="Path 288" d="M74.275,73.783l-24.437.611v-.437l24.437-.611Z" transform="translate(-8.86 -5.285)" fill="#8dbd2b"/>
        <path id="Path_289" data-name="Path 289" d="M74.275,74.086,49.838,74.7V74.26l24.437-.611Z" transform="translate(-8.86 -5.151)" fill="#8dbc2b"/>
        <path id="Path_290" data-name="Path 290" d="M74.275,74.389,49.838,75v-.437l24.437-.611Z" transform="translate(-8.86 -5.017)" fill="#8dbc2b"/>
        <path id="Path_291" data-name="Path 291" d="M74.275,74.692,49.838,75.3v-.437l24.437-.611Z" transform="translate(-8.86 -4.883)" fill="#8dbc2b"/>
        <path id="Path_292" data-name="Path 292" d="M74.275,74.995l-24.437.611v-.437l24.437-.611Z" transform="translate(-8.86 -4.749)" fill="#8dbc2b"/>
        <path id="Path_293" data-name="Path 293" d="M74.275,75.3l-24.437.611v-.437l24.437-.611Z" transform="translate(-8.86 -4.615)" fill="#8cbc2a"/>
        <path id="Path_294" data-name="Path 294" d="M74.275,75.6l-24.437.611v-.437l24.437-.611Z" transform="translate(-8.86 -4.482)" fill="#8cbc2a"/>
        <path id="Path_295" data-name="Path 295" d="M74.275,75.9l-24.437.611v-.437l24.437-.611Z" transform="translate(-8.86 -4.348)" fill="#8cbc2a"/>
        <path id="Path_296" data-name="Path 296" d="M74.275,76.206l-24.437.611v-.437l24.437-.611Z" transform="translate(-8.86 -4.214)" fill="#8cbc2a"/>
        <path id="Path_297" data-name="Path 297" d="M74.275,76.509l-24.437.611v-.437l24.437-.611Z" transform="translate(-8.86 -4.08)" fill="#8cbc2a"/>
        <path id="Path_298" data-name="Path 298" d="M74.275,76.812l-24.437.611v-.437l24.437-.611Z" transform="translate(-8.86 -3.946)" fill="#8cbc2a"/>
        <path id="Path_299" data-name="Path 299" d="M74.275,77.115l-24.437.611V77.29l24.437-.611Z" transform="translate(-8.86 -3.812)" fill="#8bbc2a"/>
        <path id="Path_300" data-name="Path 300" d="M74.275,77.418l-24.437.611v-.437l24.437-.611Z" transform="translate(-8.86 -3.678)" fill="#8bbc2a"/>
        <path id="Path_301" data-name="Path 301" d="M74.275,77.721l-24.437.611V77.9l24.437-.611Z" transform="translate(-8.86 -3.544)" fill="#8bbc2a"/>
        <path id="Path_302" data-name="Path 302" d="M74.275,78.024l-24.437.611V78.2l24.437-.611Z" transform="translate(-8.86 -3.411)" fill="#8bbc2a"/>
        <path id="Path_303" data-name="Path 303" d="M74.275,78.327l-24.437.611V78.5l24.437-.611Z" transform="translate(-8.86 -3.277)" fill="#8bbc29"/>
        <path id="Path_304" data-name="Path 304" d="M74.275,78.63l-24.437.611V78.8l24.437-.611Z" transform="translate(-8.86 -3.143)" fill="#8bbc29"/>
        <path id="Path_305" data-name="Path 305" d="M74.275,78.932l-24.437.611v-.437L74.275,78.5Z" transform="translate(-8.86 -3.009)" fill="#8bbb29"/>
        <path id="Path_306" data-name="Path 306" d="M74.275,79.235l-24.437.611V79.41L74.275,78.8Z" transform="translate(-8.86 -2.875)" fill="#8bbb29"/>
        <path id="Path_307" data-name="Path 307" d="M74.275,79.538l-24.437.611v-.437L74.275,79.1Z" transform="translate(-8.86 -2.741)" fill="#8bbb29"/>
        <path id="Path_308" data-name="Path 308" d="M74.275,79.841l-24.437.611v-.437L74.275,79.4Z" transform="translate(-8.86 -2.607)" fill="#8bbb29"/>
        <path id="Path_309" data-name="Path 309" d="M49.838,80.318l24.437-.611v1.5H49.838Z" transform="translate(-8.86 -2.474)" fill="#8bbb29"/>
        <path id="Path_310" data-name="Path 310" d="M37.806,26.034l-16.385.41v-.41Z" transform="translate(-21.42 -26.195)" fill="#eceeb4"/>
        <path id="Path_311" data-name="Path 311" d="M55.277,26.034l-33.857.846v-.437l16.387-.41Z" transform="translate(-21.42 -26.195)" fill="#ecedb2"/>
        <path id="Path_312" data-name="Path 312" d="M72.748,26.034,21.42,27.318v-.437l33.857-.846Z" transform="translate(-21.42 -26.195)" fill="#ebedb1"/>
        <path id="Path_313" data-name="Path 313" d="M90.219,26.034l-68.8,1.72v-.437l51.328-1.283Z" transform="translate(-21.42 -26.195)" fill="#e9ecaf"/>
        <path id="Path_314" data-name="Path 314" d="M107.69,26.034,21.42,28.192v-.437l68.8-1.72Z" transform="translate(-21.42 -26.195)" fill="#e8ebae"/>
        <path id="Path_315" data-name="Path 315" d="M125.161,26.034,21.421,28.629v-.437l86.27-2.157Z" transform="translate(-21.42 -26.195)" fill="#e8ebac"/>
        <path id="Path_316" data-name="Path 316" d="M127.814,26.4,21.42,29.065v-.437l103.741-2.594h2.653Z" transform="translate(-21.42 -26.195)" fill="#e7eaab"/>
        <path id="Path_317" data-name="Path 317" d="M127.814,26.728,21.42,29.389v-.437l106.394-2.66Z" transform="translate(-21.42 -26.082)" fill="#e6eaa9"/>
        <path id="Path_318" data-name="Path 318" d="M127.814,27.031,21.42,29.691v-.437l106.394-2.66Z" transform="translate(-21.42 -25.948)" fill="#e5e9a8"/>
        <path id="Path_319" data-name="Path 319" d="M127.814,27.334,21.42,29.994v-.437L127.814,26.9Z" transform="translate(-21.42 -25.814)" fill="#e4e9a7"/>
        <path id="Path_320" data-name="Path 320" d="M127.814,27.637,21.42,30.3V29.86L127.814,27.2Z" transform="translate(-21.42 -25.68)" fill="#e3e8a5"/>
        <path id="Path_321" data-name="Path 321" d="M127.814,27.94,21.42,30.6v-.437L127.814,27.5Z" transform="translate(-21.42 -25.546)" fill="#e2e8a4"/>
        <path id="Path_322" data-name="Path 322" d="M127.814,28.243,21.42,30.9v-.437l106.394-2.66Z" transform="translate(-21.42 -25.412)" fill="#e1e7a2"/>
        <path id="Path_323" data-name="Path 323" d="M127.814,28.546,21.42,31.206v-.437l106.394-2.66Z" transform="translate(-21.42 -25.278)" fill="#e0e7a1"/>
        <path id="Path_324" data-name="Path 324" d="M127.814,28.848,21.42,31.509v-.437l106.394-2.66Z" transform="translate(-21.42 -25.144)" fill="#dfe69f"/>
        <path id="Path_325" data-name="Path 325" d="M127.814,29.151,21.42,31.812v-.437l106.394-2.66Z" transform="translate(-21.42 -25.011)" fill="#dfe69e"/>
        <path id="Path_326" data-name="Path 326" d="M127.814,29.454,21.42,32.115v-.437l106.394-2.66Z" transform="translate(-21.42 -24.877)" fill="#dee59d"/>
        <path id="Path_327" data-name="Path 327" d="M127.814,29.757,21.42,32.418v-.437l106.394-2.66Z" transform="translate(-21.42 -24.743)" fill="#dde59b"/>
        <path id="Path_328" data-name="Path 328" d="M127.814,30.06,21.42,32.72v-.437l106.394-2.66Z" transform="translate(-21.42 -24.609)" fill="#dce49a"/>
        <path id="Path_329" data-name="Path 329" d="M127.814,30.363,21.42,33.023v-.437l106.394-2.66Z" transform="translate(-21.42 -24.475)" fill="#dbe499"/>
        <path id="Path_330" data-name="Path 330" d="M127.814,30.666,21.42,33.326v-.437l106.394-2.66Z" transform="translate(-21.42 -24.341)" fill="#dae398"/>
        <path id="Path_331" data-name="Path 331" d="M127.814,30.969,21.42,33.629v-.437l106.394-2.66Z" transform="translate(-21.42 -24.207)" fill="#d9e396"/>
        <path id="Path_332" data-name="Path 332" d="M127.814,31.272,21.42,33.932V33.5l106.394-2.66Z" transform="translate(-21.42 -24.073)" fill="#d8e295"/>
        <path id="Path_333" data-name="Path 333" d="M127.814,31.575,21.42,34.235V33.8l106.394-2.66Z" transform="translate(-21.42 -23.94)" fill="#d8e294"/>
        <path id="Path_334" data-name="Path 334" d="M127.814,31.878,21.42,34.538V34.1l106.394-2.66Z" transform="translate(-21.42 -23.806)" fill="#d7e192"/>
        <path id="Path_335" data-name="Path 335" d="M127.814,32.18,21.42,34.841V34.4l106.394-2.66Z" transform="translate(-21.42 -23.672)" fill="#d6e191"/>
        <path id="Path_336" data-name="Path 336" d="M127.814,32.483,21.42,35.144v-.437l106.394-2.66Z" transform="translate(-21.42 -23.538)" fill="#d5e090"/>
        <path id="Path_337" data-name="Path 337" d="M127.814,32.786,21.42,35.447V35.01l106.394-2.66Z" transform="translate(-21.42 -23.404)" fill="#d4e08f"/>
        <path id="Path_338" data-name="Path 338" d="M127.814,33.089,21.42,35.75v-.437l106.394-2.66Z" transform="translate(-21.42 -23.27)" fill="#d4e08e"/>
        <path id="Path_339" data-name="Path 339" d="M127.814,33.392,21.42,36.052v-.437l106.394-2.66Z" transform="translate(-21.42 -23.136)" fill="#d3df8c"/>
        <path id="Path_340" data-name="Path 340" d="M127.814,33.695,21.42,36.355v-.437l106.394-2.66Z" transform="translate(-21.42 -23.002)" fill="#d2df8b"/>
        <path id="Path_341" data-name="Path 341" d="M127.814,34,21.42,36.658v-.437l106.394-2.66Z" transform="translate(-21.42 -22.869)" fill="#d1de8a"/>
        <path id="Path_342" data-name="Path 342" d="M127.814,34.3,21.42,36.961v-.437l106.394-2.66Z" transform="translate(-21.42 -22.735)" fill="#d0de89"/>
        <path id="Path_343" data-name="Path 343" d="M127.814,34.6,21.42,37.264v-.437l106.394-2.66Z" transform="translate(-21.42 -22.601)" fill="#cfdd88"/>
        <path id="Path_344" data-name="Path 344" d="M127.814,34.907,21.42,37.567V37.13l106.394-2.66Z" transform="translate(-21.42 -22.467)" fill="#cfdd87"/>
        <path id="Path_345" data-name="Path 345" d="M127.814,35.209,21.42,37.87v-.437l106.394-2.66Z" transform="translate(-21.42 -22.333)" fill="#cedc85"/>
        <path id="Path_346" data-name="Path 346" d="M127.814,35.512,21.42,38.173v-.437l106.394-2.66Z" transform="translate(-21.42 -22.199)" fill="#cddc84"/>
        <path id="Path_347" data-name="Path 347" d="M127.814,35.815,21.42,38.476v-.437l106.394-2.66Z" transform="translate(-21.42 -22.065)" fill="#ccdc83"/>
        <path id="Path_348" data-name="Path 348" d="M127.814,36.118,21.42,38.779v-.437l106.394-2.66Z" transform="translate(-21.42 -21.931)" fill="#cbdb82"/>
        <path id="Path_349" data-name="Path 349" d="M127.814,36.421,21.42,39.082v-.437l106.394-2.66Z" transform="translate(-21.42 -21.798)" fill="#cbdb81"/>
        <path id="Path_350" data-name="Path 350" d="M127.814,36.724,21.42,39.384v-.437l106.394-2.66Z" transform="translate(-21.42 -21.664)" fill="#cada80"/>
        <path id="Path_351" data-name="Path 351" d="M127.814,37.027,21.42,39.687V39.25l106.394-2.66Z" transform="translate(-21.42 -21.53)" fill="#c9da7f"/>
        <path id="Path_352" data-name="Path 352" d="M127.814,37.33,21.42,39.99v-.437l106.394-2.66Z" transform="translate(-21.42 -21.396)" fill="#c9da7e"/>
        <path id="Path_353" data-name="Path 353" d="M127.814,37.633,21.42,40.293v-.437L127.814,37.2Z" transform="translate(-21.42 -21.262)" fill="#c8d97d"/>
        <path id="Path_354" data-name="Path 354" d="M127.814,37.936,21.42,40.6v-.437L127.814,37.5Z" transform="translate(-21.42 -21.128)" fill="#c7d97c"/>
        <path id="Path_355" data-name="Path 355" d="M127.814,38.239,21.42,40.9v-.437L127.814,37.8Z" transform="translate(-21.42 -20.994)" fill="#c6d87b"/>
        <path id="Path_356" data-name="Path 356" d="M127.814,38.541,21.42,41.2v-.437L127.814,38.1Z" transform="translate(-21.42 -20.86)" fill="#c5d87a"/>
        <path id="Path_357" data-name="Path 357" d="M127.814,38.844,21.42,41.5v-.437l106.394-2.66Z" transform="translate(-21.42 -20.727)" fill="#c5d879"/>
        <path id="Path_358" data-name="Path 358" d="M127.814,39.147,21.42,41.808v-.437l106.394-2.66Z" transform="translate(-21.42 -20.593)" fill="#c4d778"/>
        <path id="Path_359" data-name="Path 359" d="M127.814,39.45,21.42,42.111v-.437l106.394-2.66Z" transform="translate(-21.42 -20.459)" fill="#c3d777"/>
        <path id="Path_360" data-name="Path 360" d="M127.814,39.753,21.42,42.413v-.437l106.394-2.66Z" transform="translate(-21.42 -20.325)" fill="#c2d676"/>
        <path id="Path_361" data-name="Path 361" d="M127.814,40.056,21.42,42.716v-.437l106.394-2.66Z" transform="translate(-21.42 -20.191)" fill="#c2d675"/>
        <path id="Path_362" data-name="Path 362" d="M127.814,40.359,21.42,43.019v-.437l106.394-2.66Z" transform="translate(-21.42 -20.057)" fill="#c1d674"/>
        <path id="Path_363" data-name="Path 363" d="M127.814,40.662,21.42,43.322v-.437l106.394-2.66Z" transform="translate(-21.42 -19.923)" fill="#c0d573"/>
        <path id="Path_364" data-name="Path 364" d="M127.814,40.965,21.42,43.625v-.437l106.394-2.66Z" transform="translate(-21.42 -19.789)" fill="#c0d572"/>
        <path id="Path_365" data-name="Path 365" d="M127.814,41.268,21.42,43.928v-.437l106.394-2.66Z" transform="translate(-21.42 -19.656)" fill="#bfd571"/>
        <path id="Path_366" data-name="Path 366" d="M127.814,41.57,21.42,44.231v-.437l106.394-2.66Z" transform="translate(-21.42 -19.522)" fill="#bed470"/>
        <path id="Path_367" data-name="Path 367" d="M127.814,41.873,21.42,44.534V44.1l106.394-2.66Z" transform="translate(-21.42 -19.388)" fill="#bdd46f"/>
        <path id="Path_368" data-name="Path 368" d="M127.814,42.176,21.42,44.837V44.4l106.394-2.66Z" transform="translate(-21.42 -19.254)" fill="#bdd36e"/>
        <path id="Path_369" data-name="Path 369" d="M127.814,42.479,21.42,45.14V44.7l106.394-2.66Z" transform="translate(-21.42 -19.12)" fill="#bcd36d"/>
        <path id="Path_370" data-name="Path 370" d="M127.814,42.782,21.42,45.442v-.437l106.394-2.66Z" transform="translate(-21.42 -18.986)" fill="#bbd36c"/>
        <path id="Path_371" data-name="Path 371" d="M127.814,43.085,21.42,45.745v-.437l106.394-2.66Z" transform="translate(-21.42 -18.852)" fill="#bbd26b"/>
        <path id="Path_372" data-name="Path 372" d="M127.814,43.388,21.42,46.048v-.437l106.394-2.66Z" transform="translate(-21.42 -18.718)" fill="#bad26a"/>
        <path id="Path_373" data-name="Path 373" d="M127.814,43.691,21.42,46.351v-.437l106.394-2.66Z" transform="translate(-21.42 -18.585)" fill="#b9d269"/>
        <path id="Path_374" data-name="Path 374" d="M127.814,43.994,21.42,46.654v-.437l106.394-2.66Z" transform="translate(-21.42 -18.451)" fill="#b8d168"/>
        <path id="Path_375" data-name="Path 375" d="M127.814,44.3,21.42,46.957V46.52l106.394-2.66Z" transform="translate(-21.42 -18.317)" fill="#b8d167"/>
        <path id="Path_376" data-name="Path 376" d="M127.814,44.6,21.42,47.26v-.437l106.394-2.66Z" transform="translate(-21.42 -18.183)" fill="#b7d166"/>
        <path id="Path_377" data-name="Path 377" d="M127.814,44.9,21.42,47.563v-.437l106.394-2.66Z" transform="translate(-21.42 -18.049)" fill="#b7d065"/>
        <path id="Path_378" data-name="Path 378" d="M127.814,45.205,21.42,47.866v-.437l106.394-2.66Z" transform="translate(-21.42 -17.915)" fill="#b6d064"/>
        <path id="Path_379" data-name="Path 379" d="M127.814,45.508,21.42,48.169v-.437l106.394-2.66Z" transform="translate(-21.42 -17.781)" fill="#b5d063"/>
        <path id="Path_380" data-name="Path 380" d="M127.814,45.811,21.42,48.472v-.437l106.394-2.66Z" transform="translate(-21.42 -17.647)" fill="#b5cf62"/>
        <path id="Path_381" data-name="Path 381" d="M127.814,46.114,21.42,48.774v-.437l106.394-2.66Z" transform="translate(-21.42 -17.514)" fill="#b4cf61"/>
        <path id="Path_382" data-name="Path 382" d="M127.814,46.417,21.42,49.077V48.64l106.394-2.66Z" transform="translate(-21.42 -17.38)" fill="#b3cf61"/>
        <path id="Path_383" data-name="Path 383" d="M127.814,46.72,21.42,49.38v-.437l106.394-2.66Z" transform="translate(-21.42 -17.246)" fill="#b3ce60"/>
        <path id="Path_384" data-name="Path 384" d="M127.814,47.023,21.42,49.683v-.437l106.394-2.66Z" transform="translate(-21.42 -17.112)" fill="#b2ce5f"/>
        <path id="Path_385" data-name="Path 385" d="M127.814,47.326,21.42,49.986v-.437l106.394-2.66Z" transform="translate(-21.42 -16.978)" fill="#b2ce5e"/>
        <path id="Path_386" data-name="Path 386" d="M127.814,47.629,21.42,50.289v-.437l106.394-2.66Z" transform="translate(-21.42 -16.844)" fill="#b1cd5d"/>
        <path id="Path_387" data-name="Path 387" d="M127.814,47.931,21.42,50.592v-.437l106.394-2.66Z" transform="translate(-21.42 -16.71)" fill="#b0cd5c"/>
        <path id="Path_388" data-name="Path 388" d="M127.814,48.234,21.42,50.895v-.437L127.814,47.8Z" transform="translate(-21.42 -16.577)" fill="#b0cd5b"/>
        <path id="Path_389" data-name="Path 389" d="M127.814,48.537,21.42,51.2v-.437L127.814,48.1Z" transform="translate(-21.42 -16.443)" fill="#afcc5a"/>
        <path id="Path_390" data-name="Path 390" d="M127.814,48.84,21.42,51.5v-.437L127.814,48.4Z" transform="translate(-21.42 -16.309)" fill="#afcc59"/>
        <path id="Path_391" data-name="Path 391" d="M127.814,49.143,21.42,51.8v-.437l106.394-2.66Z" transform="translate(-21.42 -16.175)" fill="#aecc58"/>
        <path id="Path_392" data-name="Path 392" d="M127.814,49.446,21.42,52.106V51.67l106.394-2.66Z" transform="translate(-21.42 -16.041)" fill="#adcb57"/>
        <path id="Path_393" data-name="Path 393" d="M127.814,49.749,21.42,52.409v-.437l106.394-2.66Z" transform="translate(-21.42 -15.907)" fill="#adcb56"/>
        <path id="Path_394" data-name="Path 394" d="M127.814,50.052,21.42,52.712v-.437l106.394-2.66Z" transform="translate(-21.42 -15.773)" fill="#accb55"/>
        <path id="Path_395" data-name="Path 395" d="M127.814,50.355,21.42,53.015v-.437l106.394-2.66Z" transform="translate(-21.42 -15.639)" fill="#abcb55"/>
        <path id="Path_396" data-name="Path 396" d="M127.814,50.658,21.42,53.318v-.437l106.394-2.66Z" transform="translate(-21.42 -15.505)" fill="#abca54"/>
        <path id="Path_397" data-name="Path 397" d="M127.814,50.961,21.42,53.621v-.437l106.394-2.66Z" transform="translate(-21.42 -15.372)" fill="#aaca53"/>
        <path id="Path_398" data-name="Path 398" d="M127.814,51.263,21.42,53.924v-.437l106.394-2.66Z" transform="translate(-21.42 -15.238)" fill="#aaca52"/>
        <path id="Path_399" data-name="Path 399" d="M127.814,51.566,21.42,54.227V53.79l106.394-2.66Z" transform="translate(-21.42 -15.104)" fill="#a9c951"/>
        <path id="Path_400" data-name="Path 400" d="M127.814,51.869,21.42,54.53v-.437l106.394-2.66Z" transform="translate(-21.42 -14.97)" fill="#a9c950"/>
        <path id="Path_401" data-name="Path 401" d="M127.814,52.172,21.42,54.833V54.4l106.394-2.66Z" transform="translate(-21.42 -14.836)" fill="#a8c94f"/>
        <path id="Path_402" data-name="Path 402" d="M127.814,52.475,21.42,55.135V54.7l106.394-2.66Z" transform="translate(-21.42 -14.702)" fill="#a8c94e"/>
        <path id="Path_403" data-name="Path 403" d="M127.814,52.778,21.42,55.438V55l106.394-2.66Z" transform="translate(-21.42 -14.568)" fill="#a7c84e"/>
        <path id="Path_404" data-name="Path 404" d="M127.814,53.081,21.42,55.741V55.3l106.394-2.66Z" transform="translate(-21.42 -14.435)" fill="#a7c84d"/>
        <path id="Path_405" data-name="Path 405" d="M127.814,53.384,21.42,56.044v-.437l106.394-2.66Z" transform="translate(-21.42 -14.301)" fill="#a6c84c"/>
        <path id="Path_406" data-name="Path 406" d="M127.814,53.687,21.42,56.347V55.91l106.394-2.66Z" transform="translate(-21.42 -14.167)" fill="#a6c84b"/>
        <path id="Path_407" data-name="Path 407" d="M127.814,53.99,21.42,56.65v-.437l106.394-2.66Z" transform="translate(-21.42 -14.033)" fill="#a5c74a"/>
        <path id="Path_408" data-name="Path 408" d="M127.814,54.292,21.42,56.953v-.437l106.394-2.66Z" transform="translate(-21.42 -13.899)" fill="#a5c749"/>
        <path id="Path_409" data-name="Path 409" d="M127.814,54.6,21.42,57.256v-.437l106.394-2.66Z" transform="translate(-21.42 -13.765)" fill="#a4c749"/>
        <path id="Path_410" data-name="Path 410" d="M127.814,54.9,21.42,57.559v-.437l106.394-2.66Z" transform="translate(-21.42 -13.631)" fill="#a3c748"/>
        <path id="Path_411" data-name="Path 411" d="M127.814,55.2,21.42,57.862v-.437l106.394-2.66Z" transform="translate(-21.42 -13.497)" fill="#a3c647"/>
        <path id="Path_412" data-name="Path 412" d="M127.814,55.5,21.42,58.164v-.437l106.394-2.66Z" transform="translate(-21.42 -13.364)" fill="#a3c646"/>
        <path id="Path_413" data-name="Path 413" d="M127.814,55.807,21.42,58.467V58.03l106.394-2.66Z" transform="translate(-21.42 -13.23)" fill="#a2c646"/>
        <path id="Path_414" data-name="Path 414" d="M127.814,56.11,21.42,58.77v-.437l106.394-2.66Z" transform="translate(-21.42 -13.096)" fill="#a2c645"/>
        <path id="Path_415" data-name="Path 415" d="M127.814,56.413,21.42,59.073v-.437l106.394-2.66Z" transform="translate(-21.42 -12.962)" fill="#a1c544"/>
        <path id="Path_416" data-name="Path 416" d="M127.814,56.716,21.42,59.376v-.437l106.394-2.66Z" transform="translate(-21.42 -12.828)" fill="#a1c543"/>
        <path id="Path_417" data-name="Path 417" d="M127.814,57.019,21.42,59.679v-.437l106.394-2.66Z" transform="translate(-21.42 -12.694)" fill="#a0c543"/>
        <path id="Path_418" data-name="Path 418" d="M127.814,57.322,21.42,59.982v-.437l106.394-2.66Z" transform="translate(-21.42 -12.56)" fill="#a0c542"/>
        <path id="Path_419" data-name="Path 419" d="M127.814,57.624,21.42,60.285v-.437l106.394-2.66Z" transform="translate(-21.42 -12.426)" fill="#9fc441"/>
        <path id="Path_420" data-name="Path 420" d="M127.814,57.927,21.42,60.588v-.437l106.394-2.66Z" transform="translate(-21.42 -12.293)" fill="#9fc441"/>
        <path id="Path_421" data-name="Path 421" d="M127.814,58.23,21.42,60.891v-.437l106.394-2.66Z" transform="translate(-21.42 -12.159)" fill="#9ec440"/>
        <path id="Path_422" data-name="Path 422" d="M127.814,58.533,21.42,61.194v-.437L127.814,58.1Z" transform="translate(-21.42 -12.025)" fill="#9ec43f"/>
        <path id="Path_423" data-name="Path 423" d="M127.814,58.836,21.42,61.5V61.06L127.814,58.4Z" transform="translate(-21.42 -11.891)" fill="#9dc43f"/>
        <path id="Path_424" data-name="Path 424" d="M127.814,59.139,21.42,61.8v-.437L127.814,58.7Z" transform="translate(-21.42 -11.757)" fill="#9dc33e"/>
        <path id="Path_425" data-name="Path 425" d="M127.814,59.442,21.42,62.1v-.437L127.814,59Z" transform="translate(-21.42 -11.623)" fill="#9dc33e"/>
        <path id="Path_426" data-name="Path 426" d="M127.814,59.745,21.42,62.405v-.437l106.394-2.66Z" transform="translate(-21.42 -11.489)" fill="#9cc33d"/>
        <path id="Path_427" data-name="Path 427" d="M127.814,60.048,21.42,62.708v-.437l106.394-2.66Z" transform="translate(-21.42 -11.355)" fill="#9cc33c"/>
        <path id="Path_428" data-name="Path 428" d="M127.814,60.351,21.42,63.011v-.437l106.394-2.66Z" transform="translate(-21.42 -11.222)" fill="#9bc33c"/>
        <path id="Path_429" data-name="Path 429" d="M127.814,60.653,21.42,63.314v-.437l106.394-2.66Z" transform="translate(-21.42 -11.088)" fill="#9bc23b"/>
        <path id="Path_430" data-name="Path 430" d="M127.814,60.956,21.42,63.617V63.18l106.394-2.66Z" transform="translate(-21.42 -10.954)" fill="#9ac23b"/>
        <path id="Path_431" data-name="Path 431" d="M127.814,61.259,21.42,63.92v-.437l106.394-2.66Z" transform="translate(-21.42 -10.82)" fill="#9ac23a"/>
        <path id="Path_432" data-name="Path 432" d="M127.814,61.562,21.42,64.223v-.437l106.394-2.66Z" transform="translate(-21.42 -10.686)" fill="#9ac23a"/>
        <path id="Path_433" data-name="Path 433" d="M127.814,61.865,21.42,64.526v-.437l106.394-2.66Z" transform="translate(-21.42 -10.552)" fill="#99c239"/>
        <path id="Path_434" data-name="Path 434" d="M127.814,62.168,21.42,64.828v-.437l106.394-2.66Z" transform="translate(-21.42 -10.418)" fill="#99c138"/>
        <path id="Path_435" data-name="Path 435" d="M127.814,62.471,21.42,65.131v-.437l106.394-2.66Z" transform="translate(-21.42 -10.284)" fill="#98c138"/>
        <path id="Path_436" data-name="Path 436" d="M127.814,62.774,21.42,65.434V65l106.394-2.66Z" transform="translate(-21.42 -10.151)" fill="#98c137"/>
        <path id="Path_437" data-name="Path 437" d="M127.814,63.077,21.42,65.737V65.3l106.394-2.66Z" transform="translate(-21.42 -10.017)" fill="#98c137"/>
        <path id="Path_438" data-name="Path 438" d="M127.814,63.38,21.42,66.04V65.6l106.394-2.66Z" transform="translate(-21.42 -9.883)" fill="#97c136"/>
        <path id="Path_439" data-name="Path 439" d="M127.814,63.683,21.42,66.343v-.437l106.394-2.66Z" transform="translate(-21.42 -9.749)" fill="#97c036"/>
        <path id="Path_440" data-name="Path 440" d="M127.814,63.985,21.42,66.646v-.437l106.394-2.66Z" transform="translate(-21.42 -9.615)" fill="#97c036"/>
        <path id="Path_441" data-name="Path 441" d="M127.814,64.288,21.42,66.949v-.437l106.394-2.66Z" transform="translate(-21.42 -9.481)" fill="#96c035"/>
        <path id="Path_442" data-name="Path 442" d="M127.814,64.591,21.42,67.252v-.437l106.394-2.66Z" transform="translate(-21.42 -9.347)" fill="#96c035"/>
        <path id="Path_443" data-name="Path 443" d="M127.814,64.894,21.42,67.555v-.437l106.394-2.66Z" transform="translate(-21.42 -9.213)" fill="#95c034"/>
        <path id="Path_444" data-name="Path 444" d="M127.814,65.2,21.42,67.857v-.437l106.394-2.66Z" transform="translate(-21.42 -9.08)" fill="#95c034"/>
        <path id="Path_445" data-name="Path 445" d="M127.814,65.5,21.42,68.16v-.437l106.394-2.66Z" transform="translate(-21.42 -8.946)" fill="#95c033"/>
        <path id="Path_446" data-name="Path 446" d="M127.814,65.8,21.42,68.463v-.437l106.394-2.66Z" transform="translate(-21.42 -8.812)" fill="#94bf33"/>
        <path id="Path_447" data-name="Path 447" d="M127.814,66.106,21.42,68.766v-.437l106.394-2.66Z" transform="translate(-21.42 -8.678)" fill="#94bf32"/>
        <path id="Path_448" data-name="Path 448" d="M127.814,66.409,21.42,69.069v-.437l106.394-2.66Z" transform="translate(-21.42 -8.544)" fill="#94bf32"/>
        <path id="Path_449" data-name="Path 449" d="M127.814,66.712,21.42,69.372v-.437l106.394-2.66Z" transform="translate(-21.42 -8.41)" fill="#93bf31"/>
        <path id="Path_450" data-name="Path 450" d="M127.814,67.014,21.42,69.675v-.437l106.394-2.66Z" transform="translate(-21.42 -8.276)" fill="#93bf31"/>
        <path id="Path_451" data-name="Path 451" d="M127.814,67.317,21.42,69.978v-.437l106.394-2.66Z" transform="translate(-21.42 -8.142)" fill="#93bf31"/>
        <path id="Path_452" data-name="Path 452" d="M127.814,67.62,21.42,70.281v-.437l106.394-2.66Z" transform="translate(-21.42 -8.009)" fill="#92bf30"/>
        <path id="Path_453" data-name="Path 453" d="M127.814,67.923,21.42,70.584v-.437l106.394-2.66Z" transform="translate(-21.42 -7.875)" fill="#92be30"/>
        <path id="Path_454" data-name="Path 454" d="M127.814,68.226,21.42,70.886V70.45l106.394-2.66Z" transform="translate(-21.42 -7.741)" fill="#92be2f"/>
        <path id="Path_455" data-name="Path 455" d="M127.814,68.529,21.42,71.189v-.437l106.394-2.66Z" transform="translate(-21.42 -7.607)" fill="#92be2f"/>
        <path id="Path_456" data-name="Path 456" d="M127.814,68.832,21.42,71.492v-.437L127.814,68.4Z" transform="translate(-21.42 -7.473)" fill="#91be2f"/>
        <path id="Path_457" data-name="Path 457" d="M127.814,69.135,21.42,71.8v-.437L127.814,68.7Z" transform="translate(-21.42 -7.339)" fill="#91be2e"/>
        <path id="Path_458" data-name="Path 458" d="M127.814,69.438,21.42,72.1v-.437L127.814,69Z" transform="translate(-21.42 -7.205)" fill="#91be2e"/>
        <path id="Path_459" data-name="Path 459" d="M127.814,69.741,21.42,72.4v-.437L127.814,69.3Z" transform="translate(-21.42 -7.071)" fill="#90be2e"/>
        <path id="Path_460" data-name="Path 460" d="M127.814,70.044,21.42,72.7v-.437l106.394-2.66Z" transform="translate(-21.42 -6.938)" fill="#90be2e"/>
        <path id="Path_461" data-name="Path 461" d="M127.814,70.346,21.42,73.007V72.57l106.394-2.66Z" transform="translate(-21.42 -6.804)" fill="#90bd2d"/>
        <path id="Path_462" data-name="Path 462" d="M127.814,70.649,21.42,73.31v-.437l106.394-2.66Z" transform="translate(-21.42 -6.67)" fill="#8fbd2d"/>
        <path id="Path_463" data-name="Path 463" d="M127.814,70.952,21.42,73.613v-.437l106.394-2.66Z" transform="translate(-21.42 -6.536)" fill="#8fbd2d"/>
        <path id="Path_464" data-name="Path 464" d="M127.814,71.255,21.42,73.916v-.437l106.394-2.66Z" transform="translate(-21.42 -6.402)" fill="#8fbd2c"/>
        <path id="Path_465" data-name="Path 465" d="M127.814,71.558,21.42,74.218v-.437l106.394-2.66Z" transform="translate(-21.42 -6.268)" fill="#8ebd2c"/>
        <path id="Path_466" data-name="Path 466" d="M127.814,71.861,21.42,74.521v-.437l106.394-2.66Z" transform="translate(-21.42 -6.134)" fill="#8ebd2c"/>
        <path id="Path_467" data-name="Path 467" d="M127.814,72.164,21.42,74.824v-.437l106.394-2.66Z" transform="translate(-21.42 -6)" fill="#8ebd2c"/>
        <path id="Path_468" data-name="Path 468" d="M127.814,72.467,21.42,75.127V74.69l106.394-2.66Z" transform="translate(-21.42 -5.867)" fill="#8ebd2c"/>
        <path id="Path_469" data-name="Path 469" d="M127.814,72.77,21.42,75.43v-.437l106.394-2.66Z" transform="translate(-21.42 -5.733)" fill="#8ebd2b"/>
        <path id="Path_470" data-name="Path 470" d="M127.814,73.073,21.42,75.733V75.3l106.394-2.66Z" transform="translate(-21.42 -5.599)" fill="#8dbd2b"/>
        <path id="Path_471" data-name="Path 471" d="M127.814,73.375,21.42,76.036V75.6l106.394-2.66Z" transform="translate(-21.42 -5.465)" fill="#8dbc2b"/>
        <path id="Path_472" data-name="Path 472" d="M127.814,73.678,21.42,76.339V75.9l106.394-2.66Z" transform="translate(-21.42 -5.331)" fill="#8dbc2b"/>
        <path id="Path_473" data-name="Path 473" d="M127.814,73.981,21.42,76.642V76.2l106.394-2.66Z" transform="translate(-21.42 -5.197)" fill="#8dbc2b"/>
        <path id="Path_474" data-name="Path 474" d="M127.814,74.284,21.42,76.945v-.437l106.394-2.66Z" transform="translate(-21.42 -5.063)" fill="#8dbc2b"/>
        <path id="Path_475" data-name="Path 475" d="M127.814,74.587,21.42,77.248v-.437l106.394-2.66Z" transform="translate(-21.42 -4.929)" fill="#8cbc2a"/>
        <path id="Path_476" data-name="Path 476" d="M127.814,74.89,21.42,77.55v-.437l106.394-2.66Z" transform="translate(-21.42 -4.796)" fill="#8cbc2a"/>
        <path id="Path_477" data-name="Path 477" d="M127.814,75.193,21.42,77.853v-.437l106.394-2.66Z" transform="translate(-21.42 -4.662)" fill="#8cbc2a"/>
        <path id="Path_478" data-name="Path 478" d="M127.814,75.5,21.42,78.156v-.437l106.394-2.66Z" transform="translate(-21.42 -4.528)" fill="#8cbc2a"/>
        <path id="Path_479" data-name="Path 479" d="M127.814,75.8,21.42,78.459v-.437l106.394-2.66Z" transform="translate(-21.42 -4.394)" fill="#8cbc2a"/>
        <path id="Path_480" data-name="Path 480" d="M127.814,76.1,21.42,78.762v-.437l106.394-2.66Z" transform="translate(-21.42 -4.26)" fill="#8cbc2a"/>
        <path id="Path_481" data-name="Path 481" d="M127.814,76.4,21.42,79.065v-.437l106.394-2.66Z" transform="translate(-21.42 -4.126)" fill="#8bbc2a"/>
        <path id="Path_482" data-name="Path 482" d="M127.814,76.707,21.42,79.368v-.437l106.394-2.66Z" transform="translate(-21.42 -3.992)" fill="#8bbc2a"/>
        <path id="Path_483" data-name="Path 483" d="M127.814,77.01,21.42,79.671v-.437l106.394-2.66Z" transform="translate(-21.42 -3.858)" fill="#8bbc2a"/>
        <path id="Path_484" data-name="Path 484" d="M127.814,77.313,21.42,79.974v-.437l106.394-2.66Z" transform="translate(-21.42 -3.725)" fill="#8bbc2a"/>
        <path id="Path_485" data-name="Path 485" d="M127.814,77.616,21.42,80.277V79.84l106.394-2.66Z" transform="translate(-21.42 -3.591)" fill="#8bbc29"/>
        <path id="Path_486" data-name="Path 486" d="M127.814,77.919,21.42,80.579v-.437l106.394-2.66Z" transform="translate(-21.42 -3.457)" fill="#8bbc29"/>
        <path id="Path_487" data-name="Path 487" d="M127.814,78.222,21.42,80.882v-.437l106.394-2.66Z" transform="translate(-21.42 -3.323)" fill="#8bbb29"/>
        <path id="Path_488" data-name="Path 488" d="M127.814,78.525,21.42,81.185v-.437l106.394-2.66Z" transform="translate(-21.42 -3.189)" fill="#8bbb29"/>
        <path id="Path_489" data-name="Path 489" d="M127.814,78.828,21.42,81.488v-.437l106.394-2.66Z" transform="translate(-21.42 -3.055)" fill="#8bbb29"/>
        <path id="Path_490" data-name="Path 490" d="M127.814,79.131,21.42,81.791v-.437l106.394-2.66Z" transform="translate(-21.42 -2.921)" fill="#8bbb29"/>
        <path id="Path_491" data-name="Path 491" d="M21.42,81.657,127.814,79v6.15H21.42Z" transform="translate(-21.42 -2.788)" fill="#8bbb29"/>
      </g>
    </g>
    <g id="Group_22" data-name="Group 22">
      <g id="Group_32" data-name="Group 32">
        <path id="Path_494" data-name="Path 494" d="M107.638,134.24a1.831,1.831,0,0,1-1.582.908" transform="translate(19.313 13.365)" fill="#fff"/>
      </g>
    </g>
  </g>
</svg>
