<svg xmlns="http://www.w3.org/2000/svg" width="27.32" height="21.107" viewBox="0 0 27.32 21.107">
  <g id="Group_208" data-name="Group 208" transform="translate(-97.583 -143.082)">
    <path id="Path_5752" data-name="Path 5752" d="M111.249,164.189h-.017a3.983,3.983,0,0,1-3.779-3.748c-.3-2.437.593-4.832,2.665-7.118.126-.139.259-.274.4-.406-.213-.153-.434-.3-.662-.431-.539,2.36-3.489,3.945-6.161,3.945a4.144,4.144,0,0,1-2.38-.639,2.514,2.514,0,0,1-1.08-2.157,3.372,3.372,0,0,1,.269-1.358l-.206-.1c-1.749-.9-2.712-2.144-2.712-3.516a2.906,2.906,0,0,1,1.141-2.45,4.394,4.394,0,0,1,2.622-.725c3.1,0,7.733,2.245,8.489,5.354a9.987,9.987,0,0,0,.791-.763,16.545,16.545,0,0,1-3.067-6.436.464.464,0,0,1,.91-.186,16.085,16.085,0,0,0,2.775,5.9,16.005,16.005,0,0,0,2.774-5.9.465.465,0,0,1,.911.186,16.555,16.555,0,0,1-3.068,6.436,9.988,9.988,0,0,0,.79.763c.756-3.109,5.392-5.354,8.49-5.354,2.356,0,3.763,1.187,3.763,3.175,0,1.372-.963,2.62-2.712,3.515q-.1.052-.207.1a3.364,3.364,0,0,1,.269,1.358,2.514,2.514,0,0,1-1.081,2.157,4.144,4.144,0,0,1-2.38.639c-2.673,0-5.622-1.585-6.161-3.945-.228.134-.449.278-.662.431q.209.2.4.406c2.072,2.286,2.969,4.681,2.665,7.118a3.982,3.982,0,0,1-3.779,3.748Zm-.963-12.515a9.928,9.928,0,0,1,.957.632,9.843,9.843,0,0,1,.957-.632,10.977,10.977,0,0,1-.957-.9A10.975,10.975,0,0,1,110.286,151.674Z" transform="translate(0 0)" fill="#e8e8e8"/>
  </g>
</svg>
