<svg xmlns="http://www.w3.org/2000/svg" width="23.741" height="23.741" viewBox="0 0 23.741 23.741">
  <path id="Icon_material-shopping-cart" data-name="Icon material-shopping-cart" d="M8.622,21.993A2.374,2.374,0,1,0,11,24.367,2.371,2.371,0,0,0,8.622,21.993ZM1.5,3V5.374H3.874l4.273,9.01-1.6,2.908a2.3,2.3,0,0,0-.3,1.14,2.381,2.381,0,0,0,2.374,2.374H22.867V18.431H9.121a.294.294,0,0,1-.3-.3l.036-.142,1.068-1.935h8.843a2.363,2.363,0,0,0,2.077-1.223l4.25-7.7a1.16,1.16,0,0,0,.142-.57,1.191,1.191,0,0,0-1.187-1.187H6.5L5.382,3ZM20.493,21.993a2.374,2.374,0,1,0,2.374,2.374A2.371,2.371,0,0,0,20.493,21.993Z" transform="translate(-1.5 -3)" fill="#e8e8e8"/>
</svg>
