<svg xmlns="http://www.w3.org/2000/svg" width="51.311" height="47.658" viewBox="0 0 51.311 47.658">
  <path id="Icon_ionic-ios-shirt" data-name="Icon ionic-ios-shirt" d="M54.662,19.108a.494.494,0,0,0-.025-.658c-1.427-1.5-7.608-7.906-11.058-10.388C41.035,6.238,38.553,4.5,35.822,4.5s-2.73.993-6.7.993-3.971-.993-6.7-.993-5.213,1.738-7.757,3.562C11.212,10.544,5.031,16.948,3.6,18.45a.494.494,0,0,0-.025.658l7.658,7.943a.5.5,0,0,0,.881-.31V21.168a1.149,1.149,0,0,1,.943-1.142,1.116,1.116,0,0,1,1.291,1.1V51.165a1,1,0,0,0,.993.993H42.9a1,1,0,0,0,.993-.993v-30a1.149,1.149,0,0,1,.943-1.142,1.116,1.116,0,0,1,1.291,1.1v5.61a.5.5,0,0,0,.881.31ZM29.121,14.3c-3.723,0-6.7-1.576-6.7-4.468,0-3.723,2.979-1.328,6.7-1.328,3.7,0,6.7-2.4,6.7,1.328C35.822,12.728,32.819,14.3,29.121,14.3Z" transform="translate(-3.465 -4.5)" fill="#72ba32"/>
</svg>
