<svg xmlns="http://www.w3.org/2000/svg" width="47.264" height="48.829" viewBox="0 0 47.264 48.829">
  <g id="Group_184" data-name="Group 184" transform="translate(-3.284 -140.321)">
    <rect id="Rectangle_289" data-name="Rectangle 289" width="26.474" height="4.586" transform="translate(13.63 165.22)" fill="#72ba32"/>
    <g id="Group_181" data-name="Group 181" transform="translate(19.804 140.321)">
      <circle id="Ellipse_66" data-name="Ellipse 66" cx="5.265" cy="5.265" r="5.265" transform="translate(1.882)" fill="#72ba32"/>
      <path id="Path_6624" data-name="Path 6624" d="M396.663,412.543v8.231c0,.029,0,.056,0,.1H382.44c0-.049.033-.075.033-.1v-8.231a3.01,3.01,0,0,1,3.074-2.938h.472a5.265,5.265,0,0,0,7.064,0h.472A3.04,3.04,0,0,1,396.663,412.543Z" transform="translate(-382.44 -397.872)" fill="#72ba32"/>
    </g>
    <g id="Group_182" data-name="Group 182" transform="translate(3.284 144.707)">
      <circle id="Ellipse_67" data-name="Ellipse 67" cx="5.023" cy="5.023" r="5.023" fill="#72ba32"/>
      <path id="Path_6625" data-name="Path 6625" d="M53.823,550.975l-2.285-11.4a3.211,3.211,0,0,0-2.917-2.46H42.1V525.17a2.784,2.784,0,0,0-2.785-2.8H38.118a2.83,2.83,0,0,0-2.838,2.8v15.568a2.782,2.782,0,0,0,.394,1.405,2.99,2.99,0,0,0,2.608,1.724,2.985,2.985,0,0,0,.572.058h7.468l1.649,8.225a2.825,2.825,0,0,0,3.317,2.207l.327-.067A2.827,2.827,0,0,0,53.823,550.975Z" transform="translate(-33.886 -510.109)" fill="#72ba32"/>
    </g>
    <g id="Group_183" data-name="Group 183" transform="translate(30.36 144.846)">
      <circle id="Ellipse_68" data-name="Ellipse 68" cx="5.023" cy="5.023" r="5.023" transform="translate(10.141 0)" fill="#72ba32"/>
      <path id="Path_6626" data-name="Path 6626" d="M643.269,528.362a2.786,2.786,0,0,0-2.786-2.8h-1.193a2.829,2.829,0,0,0-2.836,2.8V540.3h-6.475a3.212,3.212,0,0,0-2.917,2.459l-2.285,11.4a2.826,2.826,0,0,0,2.209,3.317l.327.066a2.823,2.823,0,0,0,3.317-2.205l1.649-8.225h7.468a2.917,2.917,0,0,0,.556-.057,2.964,2.964,0,0,0,2.838-2.254,2.788,2.788,0,0,0,.127-.877Z" transform="translate(-624.723 -513.301)" fill="#72ba32"/>
    </g>
  </g>
</svg>
